<?xml version="1.0" encoding="UTF-8" standalone="no"?>
<svg width="256px" height="256px" viewBox="0 0 256 256" version="1.1" xmlns="http://www.w3.org/2000/svg" xmlns:xlink="http://www.w3.org/1999/xlink">
    <!-- Generator: Sketch 39.1 (31720) - http://www.bohemiancoding.com/sketch -->
    <title>Dribbble sign in</title>
    <desc>Created with Sketch.</desc>
    <defs></defs>
    <g id="Page-1" stroke="none" stroke-width="1" fill="none" fill-rule="evenodd">
        <g id="Dribbble-sign-in" fill="#FFFFFF">
            <g id="Page-1" transform="translate(26.000000, 0.000000)">
                <path d="M51.9330361,52 L51.9000015,52 L51.9000015,70 L62.4000015,70 L62.4000015,52 L62.3821338,52 C62.4139759,46.2747812 63.562659,40.7203016 65.7951347,35.4857796 C67.0584163,32.5255837 68.6592,29.7095837 70.5546449,27.1130122 C78.2879347,16.5229714 90.1276735,10.4489796 102.766759,10.4489796 C126.076343,10.4489796 143.15102,27.9604245 143.15102,52.0881633 L143.15102,70.0081633 L15.0486204,70.0081633 C6.98200816,70.0081633 0,76.5701224 0,84.6367347 L0,240.885551 C0,248.951118 6.98200816,256 15.0486204,256 L190.171429,256 C198.238041,256 204.8,248.951118 204.8,240.885551 L204.8,84.6367347 C204.8,76.5701224 198.238041,70.0081633 190.171429,70.0081633 L153.6,70.0081633 L153.6,52.0881633 C153.6,22.3932082 131.657143,0 102.766759,0 C86.9888,0 71.7729959,7.8325551 62.1944163,20.951249 C59.831902,24.1862531 57.7974857,27.6971102 56.2238694,31.3856 C53.4345155,37.9230191 51.9658621,44.8577718 51.9330361,52 Z M194.35102,241.371429 C194.35102,243.679608 192.479608,245.55102 190.171429,245.55102 L14.6285714,245.55102 C12.3203918,245.55102 10.4489796,243.679608 10.4489796,241.371429 L10.4489796,84.6367347 C10.4489796,82.3285551 12.3203918,80.4571429 14.6285714,80.4571429 L190.171429,80.4571429 C192.479608,80.4571429 194.35102,82.3285551 194.35102,84.6367347 L194.35102,241.371429 Z M102.611696,105.227389 C88.2568882,105.227389 76.6146351,116.443324 76.6146351,130.301806 C76.6146351,142.499944 85.6550922,152.637544 97.6097698,154.892434 L76.6146351,230.615144 L128.604578,230.615144 L107.613623,154.892434 C119.5683,152.637544 128.604578,142.499944 128.604578,130.301806 C128.604578,116.443324 116.966504,105.227389 102.611696,105.227389 Z M102.611696,115.676369 C111.182994,115.676369 118.155598,122.237283 118.155598,130.301806 C118.155598,137.236793 112.907076,143.26063 105.676382,144.624222 L102.611696,145.203096 L99.5470106,144.624222 C92.3142269,143.259585 87.0636147,137.236793 87.0636147,130.301806 C87.0636147,122.237283 94.0383086,115.676369 102.611696,115.676369 Z M102.611696,175.962802 L114.865215,220.166165 L90.3550433,220.166165 L102.611696,175.962802 Z" id="Combined-Shape"></path>
            </g>
        </g>
    </g>
</svg>