<?xml version="1.0" encoding="UTF-8" standalone="no"?>
<svg width="256px" height="256px" viewBox="0 0 256 256" version="1.1" xmlns="http://www.w3.org/2000/svg" xmlns:xlink="http://www.w3.org/1999/xlink">
    <!-- Generator: Sketch 39.1 (31720) - http://www.bohemiancoding.com/sketch -->
    <title>Dribbble sign in</title>
    <desc>Created with Sketch.</desc>
    <defs></defs>
    <g id="Page-1" stroke="none" stroke-width="1" fill="none" fill-rule="evenodd">
        <g id="Dribbble-sign-in">
            <path d="M241.5179,1.9999 L14.4819,1.9999 C6.5169,1.9999 -0.0001,8.5169 -0.0001,16.4819 L-0.0001,175.5179 C-0.0001,183.4829 6.5169,189.9999 14.4819,189.9999 L47.2679,189.9999 C48.6389,189.9999 49.7499,191.1109 49.7499,192.4819 L49.7499,251.9699 C49.7499,253.4719 50.9769,254.4569 52.2519,254.4569 C52.8839,254.4569 53.5269,254.2149 54.0379,253.6729 L113.3489,190.7789 C113.8179,190.2819 114.4709,189.9999 115.1549,189.9999 L241.5179,189.9999 C249.4829,189.9999 255.9999,183.4829 255.9999,175.5179 L255.9999,16.4819 C255.9999,8.5169 249.4829,1.9999 241.5179,1.9999 M241.5179,11.9999 C243.9479,11.9999 245.9999,14.0529 245.9999,16.4819 L245.9999,175.5179 C245.9999,177.9469 243.9479,179.9999 241.5179,179.9999 L115.1549,179.9999 C111.7319,179.9999 108.4219,181.4279 106.0739,183.9179 L59.7499,233.0399 L59.7499,192.4819 C59.7499,185.5989 54.1499,179.9999 47.2679,179.9999 L14.4819,179.9999 C12.0529,179.9999 9.9999,177.9469 9.9999,175.5179 L9.9999,16.4819 C9.9999,14.0529 12.0529,11.9999 14.4819,11.9999 L241.5179,11.9999" id="Fill-1" fill="#FFFFFF"></path>
            <path d="M68.7501,65.2197 L122.7501,65.2197" id="Stroke-4" stroke="#FFFFFF" stroke-width="10" stroke-linecap="round" stroke-linejoin="round"></path>
            <path d="M68.7501,98.553 L188.0831,98.553" id="Stroke-6" stroke="#FFFFFF" stroke-width="10" stroke-linecap="round" stroke-linejoin="round"></path>
            <path d="M70.0835,134.553 L192.7505,134.553" id="Stroke-8" stroke="#FFFFFF" stroke-width="10" stroke-linecap="round" stroke-linejoin="round"></path>
        </g>
    </g>
</svg>