<?xml version="1.0" encoding="UTF-8" standalone="no"?>
<svg width="256px" height="256px" viewBox="0 0 256 256" version="1.1" xmlns="http://www.w3.org/2000/svg" xmlns:xlink="http://www.w3.org/1999/xlink">
    <!-- Generator: Sketch 39.1 (31720) - http://www.bohemiancoding.com/sketch -->
    <title>Dribbble sign in</title>
    <desc>Created with Sketch.</desc>
    <defs></defs>
    <g id="Page-1" stroke="none" stroke-width="1" fill="none" fill-rule="evenodd">
        <g id="Dribbble-sign-in">
            <path d="M241.5179,1.9999 L14.4819,1.9999 C6.5169,1.9999 -0.0001,8.5169 -0.0001,16.4819 L-0.0001,175.5179 C-0.0001,183.4829 6.5169,189.9999 14.4819,189.9999 L140.8459,189.9999 C141.5289,189.9999 142.1829,190.2819 142.6519,190.7789 L201.9619,253.6729 C202.4729,254.2149 203.1169,254.4569 203.7479,254.4569 C205.0229,254.4569 206.2499,253.4719 206.2499,251.9699 L206.2499,192.4819 C206.2499,191.1109 207.3619,189.9999 208.7319,189.9999 L241.5179,189.9999 C249.4829,189.9999 255.9999,183.4829 255.9999,175.5179 L255.9999,16.4819 C255.9999,8.5169 249.4829,1.9999 241.5179,1.9999 M241.5179,11.9999 C243.9479,11.9999 245.9999,14.0529 245.9999,16.4819 L245.9999,175.5179 C245.9999,177.9469 243.9479,179.9999 241.5179,179.9999 L208.7319,179.9999 C201.8499,179.9999 196.2509,185.5989 196.2499,192.4819 L196.2499,233.0399 L149.9269,183.9179 C147.5779,181.4279 144.2689,179.9999 140.8459,179.9999 L14.4819,179.9999 C12.0529,179.9999 9.9999,177.9469 9.9999,175.5179 L9.9999,16.4819 C9.9999,14.0529 12.0529,11.9999 14.4819,11.9999 L241.5179,11.9999" id="Fill-1" fill="#FFFFFF"></path>
            <path d="M81.484,93.1601 C81.484,102.7011 73.75,110.4351 64.209,110.4351 C54.668,110.4351 46.933,102.7011 46.933,93.1601 C46.933,83.6191 54.668,75.8851 64.209,75.8851 C73.75,75.8851 81.484,83.6191 81.484,93.1601 L81.484,93.1601 Z" id="Stroke-4" stroke="#FFFFFF" stroke-width="10" stroke-linecap="round" stroke-linejoin="round"></path>
            <path d="M141.7086,92.4935 C141.7086,101.3305 134.5456,108.4935 125.7086,108.4935 C116.8716,108.4935 109.7086,101.3305 109.7086,92.4935 C109.7086,83.6565 116.8716,76.4935 125.7086,76.4935 C134.5456,76.4935 141.7086,83.6565 141.7086,92.4935 L141.7086,92.4935 Z" id="Stroke-6" stroke="#FFFFFF" stroke-width="10" stroke-linecap="round" stroke-linejoin="round"></path>
            <path d="M201.2086,92.4935 C201.2086,101.3305 194.0456,108.4935 185.2086,108.4935 C176.3716,108.4935 169.2086,101.3305 169.2086,92.4935 C169.2086,83.6565 176.3716,76.4935 185.2086,76.4935 C194.0456,76.4935 201.2086,83.6565 201.2086,92.4935 L201.2086,92.4935 Z" id="Stroke-8" stroke="#FFFFFF" stroke-width="10" stroke-linecap="round" stroke-linejoin="round"></path>
        </g>
    </g>
</svg>