<?xml version="1.0" encoding="utf-8"?>
<!-- Generator: Adobe Illustrator 20.0.0, SVG Export Plug-In . SVG Version: 6.00 Build 0)  -->
<svg version="1.1" xmlns="http://www.w3.org/2000/svg" xmlns:xlink="http://www.w3.org/1999/xlink" x="0px" y="0px"
	 viewBox="0 0 1584 1584" style="enable-background:new 0 0 1584 1584;" xml:space="preserve">
<style type="text/css">
	.st0{display:none;fill:#F57888;}
	.st1{fill:none;stroke:#EF6B7D;stroke-width:4;stroke-linecap:round;stroke-linejoin:round;stroke-miterlimit:10;}
	.st2{fill:none;stroke:#EF6B7D;stroke-width:3;stroke-linecap:round;stroke-linejoin:round;stroke-miterlimit:10;}
	.st3{display:none;}
	.st4{display:inline;}
	
		.st5{fill:none;stroke:#EF6B7D;stroke-width:4;stroke-linecap:round;stroke-linejoin:round;stroke-miterlimit:10;stroke-dasharray:4,11;}
</style>
<g id="Layer_1">
	<rect class="st0" width="1582.7" height="1582.7"/>
	<g>
		<line class="st1" x1="1302" y1="260" x2="1302" y2="289"/>
		<circle class="st1" cx="1301.2" cy="251.2" r="20"/>
	</g>
</g>
<g id="Layer_7">
	<g>
		<path class="st1" d="M321.1,448.8V299.9h93.2v27.3h-64.3v34h58.2V387h-58.2v34.4h64.3v27.3H321.1z"/>
		<path class="st1" d="M531.9,414.7h-60.5l-12.4,34h-30.7l57.1-148.9h33.6l56.7,148.9h-31.5L531.9,414.7z M481.1,388.3h41.2
			L501.7,332L481.1,388.3z"/>
		<path class="st1" d="M643.8,327.4v121.4h-29.2V327.4h-47v-27.5h123.3v27.5H643.8z"/>
	</g>
	<g>
		<path class="st1" d="M296.1,704.5V520.2h66.8c55.4,0,92.6,35.4,92.6,92.3c0,56.9-37.2,92-92.8,92H296.1z M361.1,665.8
			c28.3,0,51.5-16.4,51.5-53.3c0-36.9-23.1-53.6-51.5-53.6h-23.9v106.9H361.1z"/>
		<path class="st1" d="M484.8,704.5V520.2h116.7v38.7h-75.7V594h68.6v36.1h-68.6v35.4h75.9v39H484.8z"/>
		<path class="st1" d="M726.4,575.8c-1.3-8.6-8.3-23.1-30.7-23.1c-15.3,0-25.2,9.6-25.2,19.8c0,8.8,5.5,15.3,18.2,17.7l24.7,4.7
			c35.1,6.5,53.3,29.1,53.3,55.4c0,28.9-24.2,58.2-68.1,58.2c-51,0-72.8-33-75.4-59l37.7-9.1c1.6,16.9,13,31.7,38.2,31.7
			c16.1,0,26-7.8,26-19.2c0-9.4-7.5-16.1-19.8-18.5l-25.2-4.7c-31.2-6-50.2-26.8-50.2-54.1c0-34.8,30.7-59.3,66-59.3
			c46,0,63.4,27.6,67.3,49.1L726.4,575.8z"/>
		<path class="st1" d="M794.7,704.5V520.2h41.6v184.3H794.7z"/>
		<path class="st1" d="M1013.1,704.5l-2.6-18.7c-8.1,11.7-25.5,22.6-51.7,22.6c-51.2,0-93.3-37.7-93.3-95.9
			c0-58,43.9-96.2,95.9-96.2c52.8,0,77.2,31.2,85.3,56.9l-39.5,13.8c-2.9-11.4-15.1-32.2-45.8-32.2c-25,0-54.3,16.6-54.3,57.7
			c0,38.5,25.5,58.5,55.4,58.5c30.4,0,43.2-19.8,45.5-30.2h-55.4V606h93.9v98.5H1013.1z"/>
		<path class="st1" d="M1197.7,704.5l-75.9-121.2v121.2H1081V520.2h49.9l69.2,112.1V520.2h41.1v184.3H1197.7z"/>
	</g>
	<path class="st1" d="M772.4,853.1c-1.1-7.3-7-19.6-26-19.6c-13,0-21.3,8.1-21.3,16.7c0,7.5,4.6,13,15.4,15l20.9,4
		c29.7,5.5,45.1,24.6,45.1,46.9c0,24.4-20.5,49.3-57.6,49.3c-43.1,0-61.6-27.9-63.8-49.9l31.9-7.7c1.3,14.3,11,26.8,32.3,26.8
		c13.6,0,22-6.6,22-16.3c0-7.9-6.4-13.6-16.7-15.6l-21.3-4c-26.4-5.1-42.5-22.7-42.5-45.8c0-29.5,26-50.2,55.9-50.2
		c38.9,0,53.7,23.3,57,41.6L772.4,853.1z"/>
	<path class="st1" d="M830.3,966V810H865v122.8h67.3V966H830.3z"/>
	<path class="st1" d="M954.8,965V809h98.8v32.8h-64v29.7h58.1v30.6h-58.1V932h64.2v33H954.8z"/>
	<path class="st1" d="M1083,965V809h98.8v32.8h-64v29.7h58.1v30.6h-58.1V932h64.2v33H1083z"/>
	<path class="st1" d="M1246,909.9V966h-34.8V810h58.7c31.7,0,53.5,20.9,53.5,49.9c0,29.5-21.8,49.9-53.5,49.9H1246z M1266.5,880
		c13.2,0,22.2-7.7,22.2-19.8c0-12.5-9-20-22.2-20h-20.2V880H1266.5z"/>
	<line class="st1" x1="617.4" y1="825" x2="617.4" y2="845.6"/>
	<path class="st1" d="M602.7,818.8c0-7.8,6.4-14.2,14.2-14.2S631,811,631,818.8"/>
	<path class="st1" d="M631,818.8c0,7.8-6.4,14.2-14.2,14.2s-14.2-6.4-14.2-14.2"/>
	<line class="st1" x1="643.2" y1="782.8" x2="643.2" y2="811.2"/>
	<path class="st1" d="M622.9,774.2c0-10.8,8.8-19.6,19.6-19.6c10.8,0,19.6,8.8,19.6,19.6"/>
	<path class="st1" d="M662,774.2c0,10.8-8.8,19.6-19.6,19.6c-10.8,0-19.6-8.8-19.6-19.6"/>
</g>
<g id="trees">
	<g>
		<line class="st1" x1="1422.5" y1="230.8" x2="1422.5" y2="287"/>
		<circle class="st1" cx="1421" cy="213.8" r="38.8"/>
	</g>
	<g>
		<line class="st1" x1="1376.9" y1="266.9" x2="1376.9" y2="284"/>
		<circle class="st1" cx="1376.5" cy="261.8" r="11.8"/>
	</g>
	<line class="st1" x1="1354.1" y1="1122.6" x2="1354.1" y2="1181"/>
	<polygon class="st1" points="1355.7,1060.4 1395.9,1155.4 1315.5,1155.4 	"/>
	<line class="st1" x1="1514.4" y1="1057.2" x2="1514.4" y2="1098"/>
	<line class="st1" x1="1485.5" y1="1080.2" x2="1513.5" y2="1013.9"/>
	<line class="st1" x1="1543.5" y1="1080.2" x2="1487.5" y2="1080.2"/>
	<line class="st1" x1="1515.5" y1="1013.9" x2="1543.5" y2="1080.2"/>
	<g>
		<line class="st1" x1="1456.8" y1="1157.7" x2="1456.8" y2="1181"/>
		<line class="st1" x1="1441.5" y1="1170.8" x2="1457.5" y2="1133"/>
		<line class="st1" x1="1473.5" y1="1170.8" x2="1441.5" y2="1170.8"/>
		<line class="st1" x1="1457.5" y1="1133" x2="1473.5" y2="1170.8"/>
	</g>
	<line class="st1" x1="1297.8" y1="1066.7" x2="1297.8" y2="1090"/>
	<line class="st1" x1="1282.5" y1="1079.8" x2="1298.5" y2="1042"/>
	<line class="st1" x1="1314.5" y1="1079.8" x2="1282.5" y2="1079.8"/>
	<line class="st1" x1="1298.5" y1="1043" x2="1314.5" y2="1080.8"/>
	<line class="st1" x1="1234.9" y1="1146.1" x2="1234.9" y2="1180"/>
	<line class="st1" x1="1212.5" y1="1165.2" x2="1235.8" y2="1110.1"/>
	<line class="st1" x1="1259.1" y1="1165.2" x2="1212.5" y2="1165.2"/>
	<line class="st1" x1="1235.8" y1="1110.1" x2="1259.1" y2="1165.2"/>
	<line class="st1" x1="1310.6" y1="378.6" x2="748.4" y2="378.6"/>
	<path class="st1" d="M676.4,450c0-35.4,31.2-71.2,72-71.2"/>
	<line class="st1" x1="677.4" y1="448.8" x2="207.1" y2="448.8"/>
	<g>
		<line class="st1" x1="854.7" y1="314.3" x2="854.7" y2="375"/>
		<circle class="st1" cx="853.1" cy="296" r="41.8"/>
	</g>
	<g>
		<line class="st1" x1="1064.4" y1="467" x2="1064.4" y2="487.6"/>
		<circle class="st1" cx="1063.9" cy="460.8" r="14.2"/>
	</g>
	<g>
		<line class="st1" x1="602.4" y1="484" x2="602.4" y2="504.6"/>
		<circle class="st1" cx="601.9" cy="477.8" r="14.2"/>
	</g>
	<g>
		<line class="st1" x1="1124.4" y1="440.4" x2="1124.4" y2="485.7"/>
		<circle class="st1" cx="1123.2" cy="426.7" r="31.3"/>
	</g>
	<g>
		<line class="st1" x1="1013.4" y1="425.6" x2="1013.4" y2="460.6"/>
		<circle class="st1" cx="1012.5" cy="415.1" r="24.1"/>
	</g>
	<line class="st1" x1="1203.4" y1="263" x2="1203.4" y2="283.6"/>
	<path class="st1" d="M1188.7,256.8c0-7.8,6.4-14.2,14.2-14.2c7.8,0,14.2,6.4,14.2,14.2"/>
	<path class="st1" d="M1217,256.8c0,7.8-6.4,14.2-14.2,14.2c-7.8,0-14.2-6.4-14.2-14.2"/>
	<line class="st1" x1="1162.4" y1="223" x2="1162.4" y2="243.6"/>
	<path class="st1" d="M1147.7,216.8c0-7.8,6.4-14.2,14.2-14.2c7.8,0,14.2,6.4,14.2,14.2"/>
	<path class="st1" d="M1176,216.8c0,7.8-6.4,14.2-14.2,14.2c-7.8,0-14.2-6.4-14.2-14.2"/>
	<line class="st1" x1="1529.4" y1="341" x2="1529.4" y2="361.6"/>
	<path class="st1" d="M1514.7,334.8c0-7.8,6.4-14.2,14.2-14.2c7.8,0,14.2,6.4,14.2,14.2"/>
	<path class="st1" d="M1543,334.8c0,7.8-6.4,14.2-14.2,14.2c-7.8,0-14.2-6.4-14.2-14.2"/>
	<g>
		<line class="st1" x1="1114.8" y1="274.7" x2="1114.8" y2="298"/>
		<line class="st1" x1="1099.5" y1="287.8" x2="1115.5" y2="250"/>
		<line class="st1" x1="1131.5" y1="287.8" x2="1099.5" y2="287.8"/>
		<line class="st1" x1="1115.5" y1="250" x2="1131.5" y2="287.8"/>
	</g>
	<g>
		<line class="st1" x1="888.8" y1="353.7" x2="888.8" y2="377"/>
		<line class="st1" x1="873.5" y1="366.8" x2="889.5" y2="329"/>
		<line class="st1" x1="905.5" y1="366.8" x2="873.5" y2="366.8"/>
		<line class="st1" x1="889.5" y1="329" x2="905.5" y2="366.8"/>
	</g>
	<g>
		<line class="st1" x1="202.8" y1="740.7" x2="202.8" y2="764"/>
		<line class="st1" x1="187.5" y1="753.8" x2="203.5" y2="716"/>
		<line class="st1" x1="219.5" y1="753.8" x2="187.5" y2="753.8"/>
		<line class="st1" x1="203.5" y1="716" x2="219.5" y2="753.8"/>
	</g>
	<g>
		<line class="st1" x1="242.4" y1="674.8" x2="242.4" y2="714"/>
		<line class="st1" x1="216.5" y1="696.8" x2="243.5" y2="633.1"/>
		<line class="st1" x1="270.5" y1="696.8" x2="216.5" y2="696.8"/>
		<line class="st1" x1="243.5" y1="633.1" x2="270.5" y2="696.8"/>
	</g>
	<line class="st1" x1="1341" y1="753.3" x2="1341" y2="772.4"/>
	<line class="st1" x1="1352" y1="753.3" x2="1352" y2="772.4"/>
	<line class="st1" x1="1363" y1="753.3" x2="1363" y2="772.4"/>
	<line class="st1" x1="1517" y1="442.3" x2="1517" y2="461.4"/>
	<line class="st1" x1="1528" y1="442.3" x2="1528" y2="461.4"/>
	<line class="st1" x1="1539" y1="442.3" x2="1539" y2="461.4"/>
	<line class="st1" x1="677.4" y1="1019" x2="677.4" y2="1039.6"/>
	<path class="st1" d="M662.7,1012.8c0-7.8,6.4-14.2,14.2-14.2s14.2,6.4,14.2,14.2"/>
	<path class="st1" d="M691,1012.8c0,7.8-6.4,14.2-14.2,14.2s-14.2-6.4-14.2-14.2"/>
	<line class="st1" x1="637.4" y1="1110" x2="637.4" y2="1130.6"/>
	<path class="st1" d="M622.7,1103.8c0-7.8,6.4-14.2,14.2-14.2s14.2,6.4,14.2,14.2"/>
	<path class="st1" d="M651,1103.8c0,7.8-6.4,14.2-14.2,14.2s-14.2-6.4-14.2-14.2"/>
	<line class="st1" x1="586.4" y1="1140" x2="586.4" y2="1160.6"/>
	<path class="st1" d="M571.7,1133.8c0-7.8,6.4-14.2,14.2-14.2s14.2,6.4,14.2,14.2"/>
	<path class="st1" d="M600,1133.8c0,7.8-6.4,14.2-14.2,14.2s-14.2-6.4-14.2-14.2"/>
	<line class="st1" x1="1238.4" y1="1019" x2="1238.4" y2="1039.6"/>
	<path class="st1" d="M1223.7,1012.8c0-7.8,6.4-14.2,14.2-14.2c7.8,0,14.2,6.4,14.2,14.2"/>
	<path class="st1" d="M1252,1012.8c0,7.8-6.4,14.2-14.2,14.2c-7.8,0-14.2-6.4-14.2-14.2"/>
	<line class="st1" x1="1359.4" y1="859" x2="1359.4" y2="879.6"/>
	<path class="st1" d="M1344.7,852.8c0-7.8,6.4-14.2,14.2-14.2c7.8,0,14.2,6.4,14.2,14.2"/>
	<path class="st1" d="M1373,852.8c0,7.8-6.4,14.2-14.2,14.2c-7.8,0-14.2-6.4-14.2-14.2"/>
	<line class="st1" x1="1550.4" y1="829" x2="1550.4" y2="849.6"/>
	<path class="st1" d="M1535.7,822.8c0-7.8,6.4-14.2,14.2-14.2c7.8,0,14.2,6.4,14.2,14.2"/>
	<path class="st1" d="M1564,822.8c0,7.8-6.4,14.2-14.2,14.2c-7.8,0-14.2-6.4-14.2-14.2"/>
	<line class="st1" x1="1550.4" y1="669" x2="1550.4" y2="689.6"/>
	<path class="st1" d="M1535.7,662.8c0-7.8,6.4-14.2,14.2-14.2c7.8,0,14.2,6.4,14.2,14.2"/>
	<path class="st1" d="M1564,662.8c0,7.8-6.4,14.2-14.2,14.2c-7.8,0-14.2-6.4-14.2-14.2"/>
	<line class="st1" x1="1276.4" y1="358" x2="1276.4" y2="378.6"/>
	<path class="st1" d="M1261.7,351.8c0-7.8,6.4-14.2,14.2-14.2c7.8,0,14.2,6.4,14.2,14.2"/>
	<path class="st1" d="M1290,351.8c0,7.8-6.4,14.2-14.2,14.2c-7.8,0-14.2-6.4-14.2-14.2"/>
	<g>
		<line class="st1" x1="636.4" y1="1277.4" x2="636.4" y2="1322.7"/>
		<circle class="st1" cx="635.2" cy="1263.7" r="31.3"/>
	</g>
	<g>
		<line class="st1" x1="579.9" y1="1298" x2="579.9" y2="1328.7"/>
		<circle class="st1" cx="579.1" cy="1288.7" r="21.2"/>
	</g>
	<g>
		<line class="st1" x1="72.2" y1="1298.7" x2="72.2" y2="1321.9"/>
		<line class="st1" x1="56.9" y1="1311.8" x2="72.9" y2="1274"/>
		<line class="st1" x1="88.9" y1="1311.8" x2="56.9" y2="1311.8"/>
		<line class="st1" x1="72.9" y1="1274" x2="88.9" y2="1311.8"/>
	</g>
	<g>
		<line class="st1" x1="30.2" y1="1298.7" x2="30.2" y2="1321.9"/>
		<line class="st1" x1="14.9" y1="1311.8" x2="30.9" y2="1274"/>
		<line class="st1" x1="46.9" y1="1311.8" x2="14.9" y2="1311.8"/>
		<line class="st1" x1="30.9" y1="1274" x2="46.9" y2="1311.8"/>
	</g>
</g>
<g id="Clouds">
	<path class="st1" d="M357.2,56.5c0-0.1,0-0.7,0-0.8c0-25.8-20.9-46.9-46.7-46.9c-23.2,0-42.5,16.8-46.1,39c-4-1.3-8.3-2.1-12.8-2.1
		c-17.3,0-32.1,10.6-38.3,25.7c-2.7-1.1-5.6-0.8-8.7-0.8c-12.4,0-22.4,9.4-22.4,23.4h202.1C383.5,76,372.4,62,357.2,56.5z"/>
	<path class="st1" d="M1216.9,45c-0.2-8-6.3-14.5-13.9-14.5c-1.8,0-3.5-0.1-5.1,0.5c-3.2-7.2-10.4-12.4-18.8-12.4
		c-11.4,0-20.7,10.1-20.7,21.5c0,1.4,0.1,2,0.4,5H1216.9z"/>
	<path class="st1" d="M1560.5,46c0.1-1,0.1-1.3,0.1-1.7c0-4.8-3.9-8.8-8.6-8.8c-3.6,0-6.7,2.1-8,5.3c-1.3-5.2-6-9.2-11.6-9.2
		c-6.6,0-12,5.8-12,12.4c0,0.6,0.1,1,0.1,2H1560.5z"/>
	<g>
		<path class="st1" d="M877,216c0.8-3,1.2-6.6,1.2-10c0-24-19.5-43.5-43.5-43.5c-6.8,0-13.2,1.5-18.9,4.3
			c-10-20.2-29.5-34.8-52.7-38c-4.7-37.4-36.6-66.4-75.3-66.4c-41.9,0-75.9,34-75.9,75.9c0,1.4,0,2.7,0.1,4.1c-0.5,0-1,0-1.5,0
			c-28.2,0-51.5,21.2-54.8,48.5c-1.5-0.3-3-0.5-4.6-0.5c-12.7,0-23,10.4-23,23.1c0,0.8,0,2.5,0.1,2.5H877z"/>
		<path class="st1" d="M554.2,94.6c0-3.2,2.6-5.8,5.8-5.8c3.2,0,5.8,2.6,5.8,5.8"/>
		<path class="st1" d="M597.6,94.6c0-3.2,2.6-5.8,5.8-5.8c3.2,0,5.8,2.6,5.8,5.8"/>
		<path class="st1" d="M593.5,109.8c0,5.6-4.5,10.2-10.2,10.2c-5.6,0-10.2-4.5-10.2-10.2"/>
		<line class="st1" x1="583.3" y1="11" x2="583.3" y2="32.6"/>
		<line class="st1" x1="612.5" y1="32.6" x2="617.9" y2="21.8"/>
		<line class="st1" x1="548.1" y1="21.8" x2="554.2" y2="36"/>
		<line class="st1" x1="519.1" y1="41.6" x2="529.8" y2="53"/>
		<line class="st1" x1="496" y1="71.2" x2="512.2" y2="78"/>
		<line class="st1" x1="491.2" y1="105.6" x2="510.9" y2="105.6"/>
		<line class="st1" x1="510.9" y1="136.2" x2="496.7" y2="143"/>
		<line class="st1" x1="528.5" y1="160.6" x2="519.1" y2="169.6"/>
		<line class="st1" x1="650.4" y1="41.6" x2="636.2" y2="53"/>
		<path class="st1" d="M564.6,166.8c9.9-14.8,26.7-24.5,45.8-24.5c0.5,0,1,0,1.5,0c-0.1-1.4-0.1-2.7-0.1-4.1
			c0-24.3,11.5-46,29.3-59.9c-10.2-21.8-32.3-36.8-58-36.8c-35.3,0-64,28.6-64,64C519.1,134.5,538.3,158.9,564.6,166.8z"/>
	</g>
	<path class="st1" d="M993.7,379c-0.2-9-7.1-16.3-15.7-16.3c-2,0-4-0.1-5.8,0.6c-3.7-8.1-11.8-14-21.3-14
		c-12.9,0-23.4,11.3-23.4,24.2c0,1.6,0.2,2.5,0.5,5.5H993.7z"/>
	<path class="st1" d="M1219.8,342.7c0-0.1,0-0.6,0-0.7c0-25.1-20.3-45.6-45.4-45.6c-22.6,0-41.3,16.4-44.8,38c-3.9-1.3-8.1-2-12.4-2
		c-16.8,0-31.3,10.3-37.2,25c-2.6-1.1-5.4-1-8.4-1c-12,0-21.8,9.5-21.8,22.5h196.6C1245.4,361,1234.6,348.1,1219.8,342.7z"/>
	<path class="st1" d="M1128.2,791c-0.2-11-7.7-17.6-17-17.6c-2.2,0-4.3,0-6.2,0.7c-4-8.8-12.8-15.2-23.1-15.2
		c-14,0-25.3,12.1-25.3,26.1c0,1.7,0.2,1.9,0.5,5.9H1128.2z"/>
	<path class="st2" d="M256.1-331.5c0.1-1,0.2-1.7,0.2-2.4c0-8.8-7.2-16.1-16-16.1c-6.7,0-12.4,4.1-14.8,9.9
		c-2.4-9.7-11.1-16.9-21.6-16.9c-12.3,0-22.3,10.1-22.3,22.4c0,1,0.1,2.1,0.2,3.1H256.1z"/>
	<path class="st1" d="M1024.4,769.8c0-0.1,0-0.4,0-0.4c0-14.6-11.8-26.5-26.4-26.5c-13.1,0-24,9.5-26,22.1c-2.3-0.7-4.7-1.2-7.2-1.2
		c-9.8,0-18.2,6-21.6,14.5c-1.5-0.6-3.2-0.5-4.9-0.5c-7,0-12.7,5.2-12.7,13.2h114.2C1039.3,780,1033,772.9,1024.4,769.8z"/>
	<path class="st1" d="M853.1,416.5c0-0.1,0-0.5,0-0.5c0-15.5-12.5-28.1-28-28.1c-13.9,0-25.5,10.1-27.6,23.4c-2.4-0.8-5-1.2-7.6-1.2
		c-10.4,0-19.3,6.4-22.9,15.4c-1.6-0.7-3.3-0.4-5.2-0.4c-7.4,0-13.4,6.1-13.4,14.1h121.1C868.9,429,862.2,419.7,853.1,416.5z"/>
	<path class="st2" d="M242-419.1c0-0.1,0-0.5,0-0.6c0-27.6-22.4-50.1-50-50.1c-24.9,0-45.5,18.1-49.3,41.9
		c-4.3-1.4-8.9-2.2-13.7-2.2c-18.5,0-34.4,11.4-41,27.6c-2.9-1.2-6-1.4-9.3-1.4c-13.3,0-24,10.5-24,24.5h216.4
		C270.2-398.5,258.3-413.3,242-419.1z"/>
</g>
<g id="Big_ben">
	<g>
		<line class="st1" x1="103.2" y1="349.9" x2="103.2" y2="380.8"/>
		<rect x="49" y="500.9" class="st1" width="114.5" height="32"/>
		<rect x="26.5" y="532.9" class="st1" width="157.9" height="170"/>
		<line class="st1" x1="63" y1="516.9" x2="63" y2="529.5"/>
		<line class="st1" x1="82.1" y1="516.9" x2="82.1" y2="529.5"/>
		<line class="st1" x1="104" y1="516.9" x2="104" y2="529.5"/>
		<line class="st1" x1="106" y1="570.8" x2="106" y2="583.4"/>
		<line class="st1" x1="106" y1="600.1" x2="106" y2="622.2"/>
		<line class="st1" x1="106" y1="656" x2="106" y2="668.7"/>
		<line class="st1" x1="122.5" y1="516.9" x2="122.5" y2="532.9"/>
		<line class="st1" x1="144.3" y1="516.9" x2="144.3" y2="529.5"/>
		<circle class="st1" cx="105.6" cy="620" r="49.5"/>
		<line class="st1" x1="152.7" y1="619.7" x2="140.1" y2="619.7"/>
		<line class="st1" x1="71.9" y1="619.7" x2="59.3" y2="619.7"/>
		<line class="st1" x1="119.1" y1="622.2" x2="106.5" y2="622.2"/>
		<rect x="37.7" y="703.5" class="st1" width="131.3" height="30.3"/>
		<rect x="46.2" y="734.9" class="st1" width="113.1" height="487.8"/>
		<line class="st1" x1="69.9" y1="759.6" x2="69.9" y2="802.2"/>
		<line class="st1" x1="92.4" y1="759.6" x2="92.4" y2="802.2"/>
		<line class="st1" x1="114.8" y1="759.6" x2="114.8" y2="802.2"/>
		<line class="st1" x1="135" y1="759.6" x2="135" y2="802.2"/>
		<line class="st1" x1="69.9" y1="847.1" x2="69.9" y2="889.8"/>
		<line class="st1" x1="92.4" y1="847.1" x2="92.4" y2="889.8"/>
		<line class="st1" x1="114.8" y1="847.1" x2="114.8" y2="889.8"/>
		<line class="st1" x1="135" y1="847.1" x2="135" y2="889.8"/>
		<line class="st1" x1="69.9" y1="932.4" x2="69.9" y2="975"/>
		<line class="st1" x1="92.4" y1="932.4" x2="92.4" y2="975"/>
		<line class="st1" x1="114.8" y1="932.4" x2="114.8" y2="975"/>
		<line class="st1" x1="135" y1="932.4" x2="135" y2="975"/>
		<line class="st1" x1="69.9" y1="1017.7" x2="69.9" y2="1060.3"/>
		<line class="st1" x1="92.4" y1="1017.7" x2="92.4" y2="1060.3"/>
		<line class="st1" x1="114.8" y1="1017.7" x2="114.8" y2="1060.3"/>
		<line class="st1" x1="135" y1="1017.7" x2="135" y2="1060.3"/>
		<line class="st1" x1="69.9" y1="1098.5" x2="69.9" y2="1141.1"/>
		<line class="st1" x1="92.4" y1="1098.5" x2="92.4" y2="1141.1"/>
		<line class="st1" x1="114.8" y1="1098.5" x2="114.8" y2="1141.1"/>
		<line class="st1" x1="135" y1="1098.5" x2="135" y2="1141.1"/>
		<line class="st1" x1="69.9" y1="1177" x2="69.9" y2="1219.7"/>
		<line class="st1" x1="92.4" y1="1177" x2="92.4" y2="1219.7"/>
		<line class="st1" x1="114.8" y1="1177" x2="114.8" y2="1219.7"/>
		<line class="st1" x1="135" y1="1177" x2="135" y2="1219.7"/>
		<polygon class="st1" points="104,258.5 135.1,380.8 72.9,380.8 		"/>
		<rect x="72.9" y="380.8" class="st1" width="62.2" height="56.1"/>
		<polygon class="st1" points="71.4,436.9 134.2,436.9 163.4,500.9 49,500.9 		"/>
	</g>
</g>
<g id="waves">
	<g>
		<g>
			<path class="st1" d="M1276.4,494.8"/>
			<path class="st1" d="M1278.3,494.8c0,3.6,2.9,6.5,6.5,6.5c3.4,0,6.1-2.6,6.5-5.8c0.4,3.3,3.1,5.8,6.5,5.8c3.6,0,6.5-2.9,6.5-6.5"
				/>
			<path class="st1" d="M1291.4,494.1"/>
			<path class="st1" d="M1305.3,494.8c0,3.6,2.9,6.5,6.5,6.5c3.6,0,6.5-2.9,6.5-6.5"/>
		</g>
		<g>
			<path class="st1" d="M1319.3,495.8c0,3.6,2.9,6.5,6.5,6.5c3.4,0,6.1-2.6,6.5-5.8c0.4,3.3,3.1,5.8,6.5,5.8c3.6,0,6.5-2.9,6.5-6.5"
				/>
			<path class="st1" d="M1332.4,495.1"/>
			<path class="st1" d="M1346.3,495.8c0,3.6,2.9,6.5,6.5,6.5c3.6,0,6.5-2.9,6.5-6.5"/>
			<path class="st1" d="M1361.3,495.8"/>
		</g>
		<g>
			<path class="st1" d="M1427.4,495.8"/>
			<path class="st1" d="M1428.3,495.8"/>
		</g>
	</g>
	<g>
		<g>
			<path class="st1" d="M1370.4,460.8"/>
			<path class="st1" d="M1372.3,460.8c0,3.6,2.9,6.5,6.5,6.5c3.4,0,6.1-2.6,6.5-5.8c0.4,3.3,3.1,5.8,6.5,5.8c3.6,0,6.5-2.9,6.5-6.5"
				/>
			<path class="st1" d="M1385.4,460.1"/>
			<path class="st1" d="M1399.3,460.8c0,3.6,2.9,6.5,6.5,6.5c3.6,0,6.5-2.9,6.5-6.5"/>
		</g>
		<g>
			<path class="st1" d="M1413.3,461.8c0,3.6,2.9,6.5,6.5,6.5c3.4,0,6.1-2.6,6.5-5.8c0.4,3.3,3.1,5.8,6.5,5.8c3.6,0,6.5-2.9,6.5-6.5"
				/>
			<path class="st1" d="M1426.4,461.1"/>
			<path class="st1" d="M1440.3,461.8c0,3.6,2.9,6.5,6.5,6.5c3.6,0,6.5-2.9,6.5-6.5"/>
			<path class="st1" d="M1455.3,461.8c0,3.6,2.9,6.5,6.5,6.5c3.4,0,6.1-2.6,6.5-5.8c0.4,3.3,3.1,5.8,6.5,5.8"/>
			<path class="st1" d="M1468.4,461.1"/>
		</g>
	</g>
	<g>
		<g>
			<path class="st1" d="M1408.3,1488.8c0,3.6,2.9,6.5,6.5,6.5c3.4,0,6.1-2.6,6.5-5.8c0.4,3.3,3.1,5.8,6.5,5.8c3.6,0,6.5-2.9,6.5-6.5
				"/>
			<path class="st1" d="M1421.4,1488.1"/>
			<path class="st1" d="M1435.3,1488.8c0,3.6,2.9,6.5,6.5,6.5c3.6,0,6.5-2.9,6.5-6.5"/>
			<path class="st1" d="M1450.3,1488.8c0,3.6,2.9,6.5,6.5,6.5c3.4,0,6.1-2.6,6.5-5.8c0.4,3.3,3.1,5.8,6.5,5.8c3.6,0,6.5-2.9,6.5-6.5
				"/>
			<path class="st1" d="M1463.4,1488.1"/>
			<path class="st1" d="M1477.3,1488.8c0,3.6,2.9,6.5,6.5,6.5c3.6,0,6.5-2.9,6.5-6.5"/>
		</g>
		<g>
			<path class="st1" d="M1490.3,1488.8c0,3.6,2.9,6.5,6.5,6.5c3.4,0,6.1-2.6,6.5-5.8c0.4,3.3,3.1,5.8,6.5,5.8c3.6,0,6.5-2.9,6.5-6.5
				"/>
			<path class="st1" d="M1503.4,1488.1"/>
			<path class="st1" d="M1517.3,1488.8c0,3.6,2.9,6.5,6.5,6.5c3.6,0,6.5-2.9,6.5-6.5"/>
			<path class="st1" d="M1532.3,1488.8c0,3.6,2.9,6.5,6.5,6.5c3.4,0,6.1-2.6,6.5-5.8c0.4,3.3,3.1,5.8,6.5,5.8c3.6,0,6.5-2.9,6.5-6.5
				"/>
			<path class="st1" d="M1545.4,1488.1"/>
			<path class="st1" d="M1559.3,1488.8c0,3.6,2.9,6.5,6.5,6.5c3.6,0,6.5-2.9,6.5-6.5"/>
		</g>
	</g>
	<g>
		<g>
			<path class="st1" d="M1069.3,1514.8c0,3.6,2.9,6.5,6.5,6.5c3.4,0,6.1-2.6,6.5-5.8c0.4,3.3,3.1,5.8,6.5,5.8c3.6,0,6.5-2.9,6.5-6.5
				"/>
			<path class="st1" d="M1082.4,1514.1"/>
			<path class="st1" d="M1096.3,1514.8c0,3.6,2.9,6.5,6.5,6.5c3.6,0,6.5-2.9,6.5-6.5"/>
			<path class="st1" d="M1111.3,1514.8c0,3.6,2.9,6.5,6.5,6.5c3.4,0,6.1-2.6,6.5-5.8c0.4,3.3,3.1,5.8,6.5,5.8c3.6,0,6.5-2.9,6.5-6.5
				"/>
			<path class="st1" d="M1124.4,1514.1"/>
			<path class="st1" d="M1138.3,1514.8c0,3.6,2.9,6.5,6.5,6.5c3.6,0,6.5-2.9,6.5-6.5"/>
		</g>
		<g>
			<path class="st1" d="M1151.3,1514.8c0,3.6,2.9,6.5,6.5,6.5c3.4,0,6.1-2.6,6.5-5.8c0.4,3.3,3.1,5.8,6.5,5.8c3.6,0,6.5-2.9,6.5-6.5
				"/>
			<path class="st1" d="M1164.4,1514.1"/>
			<path class="st1" d="M1178.3,1514.8c0,3.6,2.9,6.5,6.5,6.5c3.6,0,6.5-2.9,6.5-6.5"/>
			<path class="st1" d="M1193.3,1514.8c0,3.6,2.9,6.5,6.5,6.5c3.4,0,6.1-2.6,6.5-5.8c0.4,3.3,3.1,5.8,6.5,5.8c3.6,0,6.5-2.9,6.5-6.5
				"/>
			<path class="st1" d="M1206.4,1514.1"/>
			<path class="st1" d="M1220.3,1514.8c0,3.6,2.9,6.5,6.5,6.5c3.6,0,6.5-2.9,6.5-6.5"/>
		</g>
	</g>
	<g>
		<g>
			<path class="st1" d="M1296.3,1427.8c0,3.6,2.9,6.5,6.5,6.5c3.4,0,6.1-2.6,6.5-5.8c0.4,3.3,3.1,5.8,6.5,5.8c3.6,0,6.5-2.9,6.5-6.5
				"/>
			<path class="st1" d="M1309.4,1427.1"/>
			<path class="st1" d="M1323.3,1427.8c0,3.6,2.9,6.5,6.5,6.5c3.6,0,6.5-2.9,6.5-6.5"/>
			<path class="st1" d="M1338.3,1427.8c0,3.6,2.9,6.5,6.5,6.5c3.4,0,6.1-2.6,6.5-5.8c0.4,3.3,3.1,5.8,6.5,5.8c3.6,0,6.5-2.9,6.5-6.5
				"/>
			<path class="st1" d="M1351.4,1427.1"/>
			<path class="st1" d="M1365.3,1427.8c0,3.6,2.9,6.5,6.5,6.5c3.6,0,6.5-2.9,6.5-6.5"/>
		</g>
		<g>
			<path class="st1" d="M1378.3,1427.8c0,3.6,2.9,6.5,6.5,6.5c3.4,0,6.1-2.6,6.5-5.8c0.4,3.3,3.1,5.8,6.5,5.8c3.6,0,6.5-2.9,6.5-6.5
				"/>
			<path class="st1" d="M1391.4,1427.1"/>
			<path class="st1" d="M1405.3,1427.8c0,3.6,2.9,6.5,6.5,6.5c3.6,0,6.5-2.9,6.5-6.5"/>
			<path class="st1" d="M1420.3,1427.8c0,3.6,2.9,6.5,6.5,6.5c3.4,0,6.1-2.6,6.5-5.8c0.4,3.3,3.1,5.8,6.5,5.8c3.6,0,6.5-2.9,6.5-6.5
				"/>
			<path class="st1" d="M1433.4,1427.1"/>
			<path class="st1" d="M1447.3,1427.8c0,3.6,2.9,6.5,6.5,6.5c3.6,0,6.5-2.9,6.5-6.5"/>
		</g>
	</g>
	<g>
		<g>
			<path class="st1" d="M527.3,1392.8c0,3.6,2.9,6.5,6.5,6.5c3.4,0,6.1-2.6,6.5-5.8c0.4,3.3,3.1,5.8,6.5,5.8c3.6,0,6.5-2.9,6.5-6.5"
				/>
			<path class="st1" d="M540.4,1392.1"/>
			<path class="st1" d="M554.3,1392.8c0,3.6,2.9,6.5,6.5,6.5c3.6,0,6.5-2.9,6.5-6.5"/>
			<path class="st1" d="M569.3,1392.8c0,3.6,2.9,6.5,6.5,6.5c3.4,0,6.1-2.6,6.5-5.8c0.4,3.3,3.1,5.8,6.5,5.8c3.6,0,6.5-2.9,6.5-6.5"
				/>
			<path class="st1" d="M582.4,1392.1"/>
			<path class="st1" d="M596.3,1392.8c0,3.6,2.9,6.5,6.5,6.5c3.6,0,6.5-2.9,6.5-6.5"/>
		</g>
		<g>
			<path class="st1" d="M609.3,1392.8c0,3.6,2.9,6.5,6.5,6.5c3.4,0,6.1-2.6,6.5-5.8c0.4,3.3,3.1,5.8,6.5,5.8c3.6,0,6.5-2.9,6.5-6.5"
				/>
			<path class="st1" d="M622.4,1392.1"/>
			<path class="st1" d="M636.3,1392.8c0,3.6,2.9,6.5,6.5,6.5c3.6,0,6.5-2.9,6.5-6.5"/>
			<path class="st1" d="M651.3,1392.8c0,3.6,2.9,6.5,6.5,6.5c3.4,0,6.1-2.6,6.5-5.8c0.4,3.3,3.1,5.8,6.5,5.8c3.6,0,6.5-2.9,6.5-6.5"
				/>
			<path class="st1" d="M664.4,1392.1"/>
			<path class="st1" d="M678.3,1392.8c0,3.6,2.9,6.5,6.5,6.5c3.6,0,6.5-2.9,6.5-6.5"/>
		</g>
	</g>
	<g>
		<g>
			<path class="st1" d="M453.4,1573.5c0.4,3.3,3.1,5.8,6.5,5.8c3.6,0,6.5-2.9,6.5-6.5"/>
			<path class="st1" d="M453.4,1572.1"/>
			<path class="st1" d="M467.3,1572.8c0,3.6,2.9,6.5,6.5,6.5c3.6,0,6.5-2.9,6.5-6.5"/>
		</g>
		<g>
			<path class="st1" d="M480.3,1572.8c0,3.6,2.9,6.5,6.5,6.5c3.4,0,6.1-2.6,6.5-5.8c0.4,3.3,3.1,5.8,6.5,5.8c3.6,0,6.5-2.9,6.5-6.5"
				/>
			<path class="st1" d="M493.4,1572.1"/>
			<path class="st1" d="M507.3,1572.8c0,3.6,2.9,6.5,6.5,6.5c3.6,0,6.5-2.9,6.5-6.5"/>
			<path class="st1" d="M522.3,1572.8c0,3.6,2.9,6.5,6.5,6.5c3.4,0,6.1-2.6,6.5-5.8c0.4,3.3,3.1,5.8,6.5,5.8c3.6,0,6.5-2.9,6.5-6.5"
				/>
			<path class="st1" d="M535.4,1572.1"/>
			<path class="st1" d="M549.3,1572.8c0,3.6,2.9,6.5,6.5,6.5c3.6,0,6.5-2.9,6.5-6.5"/>
		</g>
	</g>
	<g>
		<g>
			<path class="st1" d="M275.3,1471.8c0,3.6,2.9,6.5,6.5,6.5c3.4,0,6.1-2.6,6.5-5.8c0.4,3.3,3.1,5.8,6.5,5.8c3.6,0,6.5-2.9,6.5-6.5"
				/>
			<path class="st1" d="M288.4,1471.1"/>
			<path class="st1" d="M302.3,1471.8c0,3.6,2.9,6.5,6.5,6.5c3.6,0,6.5-2.9,6.5-6.5"/>
			<path class="st1" d="M317.3,1471.8c0,3.6,2.9,6.5,6.5,6.5c3.4,0,6.1-2.6,6.5-5.8c0.4,3.3,3.1,5.8,6.5,5.8c3.6,0,6.5-2.9,6.5-6.5"
				/>
			<path class="st1" d="M330.4,1471.1"/>
			<path class="st1" d="M344.3,1471.8c0,3.6,2.9,6.5,6.5,6.5c3.6,0,6.5-2.9,6.5-6.5"/>
		</g>
		<g>
			<path class="st1" d="M357.3,1471.8c0,3.6,2.9,6.5,6.5,6.5c3.4,0,6.1-2.6,6.5-5.8c0.4,3.3,3.1,5.8,6.5,5.8c3.6,0,6.5-2.9,6.5-6.5"
				/>
			<path class="st1" d="M370.4,1471.1"/>
			<path class="st1" d="M384.3,1471.8c0,3.6,2.9,6.5,6.5,6.5c3.6,0,6.5-2.9,6.5-6.5"/>
			<path class="st1" d="M399.3,1471.8c0,3.6,2.9,6.5,6.5,6.5c3.4,0,6.1-2.6,6.5-5.8c0.4,3.3,3.1,5.8,6.5,5.8c3.6,0,6.5-2.9,6.5-6.5"
				/>
			<path class="st1" d="M412.4,1471.1"/>
			<path class="st1" d="M426.3,1471.8c0,3.6,2.9,6.5,6.5,6.5c3.6,0,6.5-2.9,6.5-6.5"/>
		</g>
	</g>
	<g>
		<g>
			<path class="st1" d="M69.3,1366.8c0,3.6,2.9,6.5,6.5,6.5c3.4,0,6.1-2.6,6.5-5.8c0.4,3.3,3.1,5.8,6.5,5.8c3.6,0,6.5-2.9,6.5-6.5"
				/>
			<path class="st1" d="M82.4,1366.1"/>
			<path class="st1" d="M96.3,1366.8c0,3.6,2.9,6.5,6.5,6.5c3.6,0,6.5-2.9,6.5-6.5"/>
			<path class="st1" d="M111.3,1366.8c0,3.6,2.9,6.5,6.5,6.5c3.4,0,6.1-2.6,6.5-5.8c0.4,3.3,3.1,5.8,6.5,5.8c3.6,0,6.5-2.9,6.5-6.5"
				/>
			<path class="st1" d="M124.4,1366.1"/>
			<path class="st1" d="M138.3,1366.8c0,3.6,2.9,6.5,6.5,6.5c3.6,0,6.5-2.9,6.5-6.5"/>
		</g>
		<g>
			<path class="st1" d="M151.3,1366.8c0,3.6,2.9,6.5,6.5,6.5c3.4,0,6.1-2.6,6.5-5.8c0.4,3.3,3.1,5.8,6.5,5.8c3.6,0,6.5-2.9,6.5-6.5"
				/>
			<path class="st1" d="M164.4,1366.1"/>
			<path class="st1" d="M178.3,1366.8c0,3.6,2.9,6.5,6.5,6.5c3.6,0,6.5-2.9,6.5-6.5"/>
			<path class="st1" d="M193.3,1366.8c0,3.6,2.9,6.5,6.5,6.5c3.4,0,6.1-2.6,6.5-5.8c0.4,3.3,3.1,5.8,6.5,5.8c3.6,0,6.5-2.9,6.5-6.5"
				/>
			<path class="st1" d="M206.4,1366.1"/>
			<path class="st1" d="M220.3,1366.8c0,3.6,2.9,6.5,6.5,6.5c3.6,0,6.5-2.9,6.5-6.5"/>
		</g>
	</g>
	<g>
		<path class="st2" d="M353.3-360.2c0,3.6,2.9,6.5,6.5,6.5c3.4,0,6.1-2.6,6.5-5.8c0.4,3.3,3.1,5.8,6.5,5.8c3.6,0,6.5-2.9,6.5-6.5"/>
		<path class="st2" d="M366.4-360.9"/>
		<path class="st2" d="M380.3-360.2c0,3.6,2.9,6.5,6.5,6.5c3.6,0,6.5-2.9,6.5-6.5"/>
		<path class="st2" d="M395.3-360.2c0,3.6,2.9,6.5,6.5,6.5c3.4,0,6.1-2.6,6.5-5.8c0.4,3.3,3.1,5.8,6.5,5.8c3.6,0,6.5-2.9,6.5-6.5"/>
		<path class="st2" d="M408.4-360.9"/>
		<path class="st2" d="M422.3-360.2c0,3.6,2.9,6.5,6.5,6.5c3.6,0,6.5-2.9,6.5-6.5"/>
	</g>
	<g>
		<path class="st1" d="M185.3,1142.8c0,3.6,2.9,6.5,6.5,6.5c3.4,0,6.1-2.6,6.5-5.8c0.4,3.3,3.1,5.8,6.5,5.8c3.6,0,6.5-2.9,6.5-6.5"
			/>
		<path class="st1" d="M198.4,1142.1"/>
		<path class="st1" d="M212.3,1142.8c0,3.6,2.9,6.5,6.5,6.5c3.6,0,6.5-2.9,6.5-6.5"/>
		<path class="st1" d="M227.3,1142.8c0,3.6,2.9,6.5,6.5,6.5c3.4,0,6.1-2.6,6.5-5.8c0.4,3.3,3.1,5.8,6.5,5.8c3.6,0,6.5-2.9,6.5-6.5"
			/>
		<path class="st1" d="M240.4,1142.1"/>
		<path class="st1" d="M254.3,1142.8c0,3.6,2.9,6.5,6.5,6.5c3.6,0,6.5-2.9,6.5-6.5"/>
	</g>
	<g>
		<path class="st1" d="M215.3,475.5c0,4,2.9,7.2,6.5,7.2c3.4,0,6.1-2.8,6.5-6.4c0.4,3.6,3.1,6.4,6.5,6.4c3.6,0,6.5-3.2,6.5-7.2"/>
		<path class="st1" d="M228.4,474.7"/>
		<path class="st1" d="M242.3,475.5c0,4,2.9,7.2,6.5,7.2c3.6,0,6.5-3.2,6.5-7.2"/>
		<path class="st1" d="M257.3,475.5c0,4,2.9,7.2,6.5,7.2c3.4,0,6.1-2.8,6.5-6.4c0.4,3.6,3.1,6.4,6.5,6.4c3.6,0,6.5-3.2,6.5-7.2"/>
		<path class="st1" d="M270.4,474.7"/>
		<path class="st1" d="M284.3,475.5c0,4,2.9,7.2,6.5,7.2c3.6,0,6.5-3.2,6.5-7.2"/>
	</g>
	<g>
		<path class="st1" d="M299.3,726.5c0,4,2.9,7.2,6.5,7.2c3.4,0,6.1-2.8,6.5-6.4c0.4,3.6,3.1,6.4,6.5,6.4c3.6,0,6.5-3.2,6.5-7.2"/>
		<path class="st1" d="M312.4,725.7"/>
		<path class="st1" d="M326.3,726.5c0,4,2.9,7.2,6.5,7.2c3.6,0,6.5-3.2,6.5-7.2"/>
		<path class="st1" d="M341.3,726.5c0,4,2.9,7.2,6.5,7.2c3.4,0,6.1-2.8,6.5-6.4c0.4,3.6,3.1,6.4,6.5,6.4c3.6,0,6.5-3.2,6.5-7.2"/>
		<path class="st1" d="M354.4,725.7"/>
		<path class="st1" d="M368.3,726.5c0,4,2.9,7.2,6.5,7.2c3.6,0,6.5-3.2,6.5-7.2"/>
	</g>
	<g>
		<path class="st1" d="M382.3,726.5c0,4,2.9,7.2,6.5,7.2c3.4,0,6.1-2.8,6.5-6.4c0.4,3.6,3.1,6.4,6.5,6.4c3.6,0,6.5-3.2,6.5-7.2"/>
		<path class="st1" d="M395.4,725.7"/>
		<path class="st1" d="M409.3,726.5c0,4,2.9,7.2,6.5,7.2c3.6,0,6.5-3.2,6.5-7.2"/>
		<path class="st1" d="M424.3,726.5c0,4,2.9,7.2,6.5,7.2c3.4,0,6.1-2.8,6.5-6.4c0.4,3.6,3.1,6.4,6.5,6.4c3.6,0,6.5-3.2,6.5-7.2"/>
		<path class="st1" d="M437.4,725.7"/>
		<path class="st1" d="M451.3,726.5c0,4,2.9,7.2,6.5,7.2c3.6,0,6.5-3.2,6.5-7.2"/>
	</g>
	<g>
		<path class="st1" d="M463.3,726.5c0,4,2.9,7.2,6.5,7.2c3.4,0,6.1-2.8,6.5-6.4c0.4,3.6,3.1,6.4,6.5,6.4c3.6,0,6.5-3.2,6.5-7.2"/>
		<path class="st1" d="M476.4,725.7"/>
		<path class="st1" d="M490.3,726.5c0,4,2.9,7.2,6.5,7.2c3.6,0,6.5-3.2,6.5-7.2"/>
		<path class="st1" d="M505.3,726.5c0,4,2.9,7.2,6.5,7.2c3.4,0,6.1-2.8,6.5-6.4c0.4,3.6,3.1,6.4,6.5,6.4c3.6,0,6.5-3.2,6.5-7.2"/>
		<path class="st1" d="M518.4,725.7"/>
		<path class="st1" d="M532.3,726.5c0,4,2.9,7.2,6.5,7.2c3.6,0,6.5-3.2,6.5-7.2"/>
	</g>
	<g>
		<path class="st1" d="M548.3,727.5c0,4,2.9,7.2,6.5,7.2c3.4,0,6.1-2.8,6.5-6.4c0.4,3.6,3.1,6.4,6.5,6.4c3.6,0,6.5-3.2,6.5-7.2"/>
		<path class="st1" d="M561.4,726.7"/>
		<path class="st1" d="M575.3,727.5c0,4,2.9,7.2,6.5,7.2c3.6,0,6.5-3.2,6.5-7.2"/>
		<path class="st1" d="M590.3,727.5c0,4,2.9,7.2,6.5,7.2c3.4,0,6.1-2.8,6.5-6.4c0.4,3.6,3.1,6.4,6.5,6.4c3.6,0,6.5-3.2,6.5-7.2"/>
		<path class="st1" d="M603.4,726.7"/>
		<path class="st1" d="M617.3,727.5c0,4,2.9,7.2,6.5,7.2c3.6,0,6.5-3.2,6.5-7.2"/>
	</g>
	<g>
		<path class="st1" d="M631.3,727.5c0,4,2.9,7.2,6.5,7.2c3.4,0,6.1-2.8,6.5-6.4c0.4,3.6,3.1,6.4,6.5,6.4c3.6,0,6.5-3.2,6.5-7.2"/>
		<path class="st1" d="M644.4,726.7"/>
		<path class="st1" d="M658.3,727.5c0,4,2.9,7.2,6.5,7.2c3.6,0,6.5-3.2,6.5-7.2"/>
		<path class="st1" d="M673.3,727.5c0,4,2.9,7.2,6.5,7.2c3.4,0,6.1-2.8,6.5-6.4c0.4,3.6,3.1,6.4,6.5,6.4c3.6,0,6.5-3.2,6.5-7.2"/>
		<path class="st1" d="M686.4,726.7"/>
		<path class="st1" d="M700.3,727.5c0,4,2.9,7.2,6.5,7.2c3.6,0,6.5-3.2,6.5-7.2"/>
	</g>
	<g>
		<path class="st1" d="M714.3,727.5c0,4,2.9,7.2,6.5,7.2c3.4,0,6.1-2.8,6.5-6.4c0.4,3.6,3.1,6.4,6.5,6.4c3.6,0,6.5-3.2,6.5-7.2"/>
		<path class="st1" d="M727.4,726.7"/>
		<path class="st1" d="M741.3,727.5c0,4,2.9,7.2,6.5,7.2c3.6,0,6.5-3.2,6.5-7.2"/>
		<path class="st1" d="M756.3,727.5c0,4,2.9,7.2,6.5,7.2c3.4,0,6.1-2.8,6.5-6.4c0.4,3.6,3.1,6.4,6.5,6.4c3.6,0,6.5-3.2,6.5-7.2"/>
		<path class="st1" d="M769.4,726.7"/>
		<path class="st1" d="M783.3,727.5c0,4,2.9,7.2,6.5,7.2c3.6,0,6.5-3.2,6.5-7.2"/>
	</g>
	<g>
		<path class="st1" d="M798.3,727.5c0,4,2.9,7.2,6.5,7.2c3.4,0,6.1-2.8,6.5-6.4c0.4,3.6,3.1,6.4,6.5,6.4c3.6,0,6.5-3.2,6.5-7.2"/>
		<path class="st1" d="M811.4,726.7"/>
		<path class="st1" d="M825.3,727.5c0,4,2.9,7.2,6.5,7.2c3.6,0,6.5-3.2,6.5-7.2"/>
		<path class="st1" d="M840.3,727.5c0,4,2.9,7.2,6.5,7.2c3.4,0,6.1-2.8,6.5-6.4c0.4,3.6,3.1,6.4,6.5,6.4c3.6,0,6.5-3.2,6.5-7.2"/>
		<path class="st1" d="M853.4,726.7"/>
		<path class="st1" d="M867.3,727.5c0,4,2.9,7.2,6.5,7.2c3.6,0,6.5-3.2,6.5-7.2"/>
	</g>
	<g>
		<path class="st1" d="M882.3,727.5c0,4,2.9,7.2,6.5,7.2c3.4,0,6.1-2.8,6.5-6.4c0.4,3.6,3.1,6.4,6.5,6.4c3.6,0,6.5-3.2,6.5-7.2"/>
		<path class="st1" d="M895.4,726.7"/>
		<path class="st1" d="M909.3,727.5c0,4,2.9,7.2,6.5,7.2c3.6,0,6.5-3.2,6.5-7.2"/>
		<path class="st1" d="M924.3,727.5c0,4,2.9,7.2,6.5,7.2c3.4,0,6.1-2.8,6.5-6.4c0.4,3.6,3.1,6.4,6.5,6.4c3.6,0,6.5-3.2,6.5-7.2"/>
		<path class="st1" d="M937.4,726.7"/>
		<path class="st1" d="M951.3,727.5c0,4,2.9,7.2,6.5,7.2c3.6,0,6.5-3.2,6.5-7.2"/>
	</g>
	<g>
		<path class="st1" d="M963.3,727.5c0,4,2.9,7.2,6.5,7.2c3.4,0,6.1-2.8,6.5-6.4c0.4,3.6,3.1,6.4,6.5,6.4c3.6,0,6.5-3.2,6.5-7.2"/>
		<path class="st1" d="M976.4,726.7"/>
		<path class="st1" d="M990.3,727.5c0,4,2.9,7.2,6.5,7.2c3.6,0,6.5-3.2,6.5-7.2"/>
		<path class="st1" d="M1005.3,727.5c0,4,2.9,7.2,6.5,7.2c3.4,0,6.1-2.8,6.5-6.4c0.4,3.6,3.1,6.4,6.5,6.4c3.6,0,6.5-3.2,6.5-7.2"/>
		<path class="st1" d="M1018.4,726.7"/>
		<path class="st1" d="M1032.3,727.5c0,4,2.9,7.2,6.5,7.2c3.6,0,6.5-3.2,6.5-7.2"/>
	</g>
	<g>
		<path class="st1" d="M1049.3,727.5c0,4,2.9,7.2,6.5,7.2c3.4,0,6.1-2.8,6.5-6.4c0.4,3.6,3.1,6.4,6.5,6.4c3.6,0,6.5-3.2,6.5-7.2"/>
		<path class="st1" d="M1062.4,726.7"/>
		<path class="st1" d="M1076.3,727.5c0,4,2.9,7.2,6.5,7.2c3.6,0,6.5-3.2,6.5-7.2"/>
		<path class="st1" d="M1091.3,727.5c0,4,2.9,7.2,6.5,7.2c3.4,0,6.1-2.8,6.5-6.4c0.4,3.6,3.1,6.4,6.5,6.4c3.6,0,6.5-3.2,6.5-7.2"/>
		<path class="st1" d="M1104.4,726.7"/>
		<path class="st1" d="M1118.3,727.5c0,4,2.9,7.2,6.5,7.2c3.6,0,6.5-3.2,6.5-7.2"/>
	</g>
	<g>
		<path class="st1" d="M1132.3,727.5c0,4,2.9,7.2,6.5,7.2c3.4,0,6.1-2.8,6.5-6.4c0.4,3.6,3.1,6.4,6.5,6.4c3.6,0,6.5-3.2,6.5-7.2"/>
		<path class="st1" d="M1145.4,726.7"/>
		<path class="st1" d="M1159.3,727.5c0,4,2.9,7.2,6.5,7.2c3.6,0,6.5-3.2,6.5-7.2"/>
		<path class="st1" d="M1174.3,727.5c0,4,2.9,7.2,6.5,7.2c3.4,0,6.1-2.8,6.5-6.4c0.4,3.6,3.1,6.4,6.5,6.4c3.6,0,6.5-3.2,6.5-7.2"/>
		<path class="st1" d="M1187.4,726.7"/>
		<path class="st1" d="M1201.3,727.5c0,4,2.9,7.2,6.5,7.2c3.6,0,6.5-3.2,6.5-7.2"/>
	</g>
	<g>
		<path class="st1" d="M1213.3,727.5c0,4,2.9,7.2,6.5,7.2c3.4,0,6.1-2.8,6.5-6.4c0.4,3.6,3.1,6.4,6.5,6.4c3.6,0,6.5-3.2,6.5-7.2"/>
		<path class="st1" d="M1226.4,726.7"/>
		<path class="st1" d="M1268.4,726.7"/>
	</g>
</g>
<g id="Layer_16">
	<path class="st1" d="M1480.3,755c0-5.5-4.5-10-10-10c-4.4,0-8.2,2.9-9.5,6.9c-1.3-4-5.1-6.9-9.5-6.9c-5.5,0-10,4.5-10,10"/>
	<path class="st1" d="M1455.3,816c0-5.5-4.5-10-10-10c-4.4,0-8.2,2.9-9.5,6.9c-1.3-4-5.1-6.9-9.5-6.9c-5.5,0-10,4.5-10,10"/>
	<path class="st1" d="M1551.3,772c0-5.5-4.5-10-10-10c-4.4,0-8.2,2.9-9.5,6.9c-1.3-4-5.1-6.9-9.5-6.9c-5.5,0-10,4.5-10,10"/>
	<path class="st1" d="M120.3,162c0-5.5-4.5-10-10-10c-4.4,0-8.2,2.9-9.5,6.9c-1.3-4-5.1-6.9-9.5-6.9c-5.5,0-10,4.5-10,10"/>
	<path class="st1" d="M67.3,128c0-5.5-4.5-10-10-10c-4.4,0-8.2,2.9-9.5,6.9c-1.3-4-5.1-6.9-9.5-6.9c-5.5,0-10,4.5-10,10"/>
	<path class="st1" d="M726.3,960"/>
	<path class="st1" d="M1187.3,1072c0-5.5-4.5-10-10-10c-4.4,0-8.2,2.9-9.5,6.9c-1.3-4-5.1-6.9-9.5-6.9c-5.5,0-10,4.5-10,10"/>
	<path class="st1" d="M1156.3,1052c0-5.5-4.5-10-10-10c-4.4,0-8.2,2.9-9.5,6.9c-1.3-4-5.1-6.9-9.5-6.9c-5.5,0-10,4.5-10,10"/>
	<path class="st1" d="M1127.3,1081c0-5.5-4.5-10-10-10c-4.4,0-8.2,2.9-9.5,6.9c-1.3-4-5.1-6.9-9.5-6.9c-5.5,0-10,4.5-10,10"/>
	<path class="st1" d="M937.3,1223c0-5.5-4.5-10-10-10c-4.4,0-8.2,2.9-9.5,6.9c-1.3-4-5.1-6.9-9.5-6.9c-5.5,0-10,4.5-10,10"/>
	<path class="st1" d="M906.3,1203c0-5.5-4.5-10-10-10c-4.4,0-8.2,2.9-9.5,6.9c-1.3-4-5.1-6.9-9.5-6.9c-5.5,0-10,4.5-10,10"/>
	<path class="st1" d="M877.3,1232c0-5.5-4.5-10-10-10c-4.4,0-8.2,2.9-9.5,6.9c-1.3-4-5.1-6.9-9.5-6.9c-5.5,0-10,4.5-10,10"/>
	<line class="st1" x1="1244.3" y1="692" x2="1579" y2="692"/>
	<g>
		<polygon class="st1" points="793.2,346.6 811.6,378.6 774.7,378.6 		"/>
		<line class="st1" x1="757" y1="346.6" x2="793.2" y2="346.6"/>
		<line class="st1" x1="739" y1="377.5" x2="757" y2="346.6"/>
		<line class="st1" x1="738.2" y1="378.6" x2="813.8" y2="378.6"/>
		<line class="st1" x1="792.7" y1="378.6" x2="792.7" y2="349"/>
	</g>
	<line class="st1" x1="220.5" y1="347" x2="286.9" y2="347"/>
	<line class="st1" x1="236" y1="365.3" x2="302.5" y2="365.3"/>
	<g>
		<polygon class="st1" points="1529.4,255.6 1547.9,287.6 1510.9,287.6 		"/>
		<line class="st1" x1="1493.2" y1="255.6" x2="1529.4" y2="255.6"/>
		<line class="st1" x1="1475.2" y1="286.4" x2="1493.2" y2="255.6"/>
		<line class="st1" x1="1474.4" y1="287.6" x2="1550" y2="287.6"/>
		<line class="st1" x1="1528.9" y1="287.6" x2="1528.9" y2="257.9"/>
	</g>
	<path class="st1" d="M874.3,80c0-5.5-4.5-10-10-10c-4.4,0-8.2,2.9-9.5,6.9c-1.3-4-5.1-6.9-9.5-6.9c-5.5,0-10,4.5-10,10"/>
	<path class="st1" d="M885.3,123c0-5.5-4.5-10-10-10c-4.4,0-8.2,2.9-9.5,6.9c-1.3-4-5.1-6.9-9.5-6.9c-5.5,0-10,4.5-10,10"/>
	<line class="st1" x1="511.5" y1="1118.7" x2="542.3" y2="1118.7"/>
	<line class="st1" x1="518.7" y1="1141.9" x2="549.5" y2="1141.9"/>
	<g>
		<polygon class="st1" points="422,471.1 440.5,503.1 403.5,503.1 		"/>
		<line class="st1" x1="385.8" y1="471.1" x2="422" y2="471.1"/>
		<line class="st1" x1="367.8" y1="502" x2="385.8" y2="471.1"/>
		<line class="st1" x1="367" y1="503.1" x2="442.7" y2="503.1"/>
		<line class="st1" x1="421.5" y1="503.1" x2="421.5" y2="473.5"/>
	</g>
	<g>
		<polygon class="st1" points="490.7,471.1 472.2,503.1 509.1,503.1 		"/>
		<line class="st1" x1="526.8" y1="471.1" x2="490.7" y2="471.1"/>
		<line class="st1" x1="544.8" y1="502" x2="526.8" y2="471.1"/>
		<line class="st1" x1="545.7" y1="503.1" x2="470" y2="503.1"/>
		<line class="st1" x1="491.2" y1="503.1" x2="491.2" y2="473.5"/>
	</g>
</g>
<g id="dots" class="st3">
	<circle class="st4" cx="723.5" cy="565.5" r="2.5"/>
	<circle class="st4" cx="732.5" cy="557.5" r="2.5"/>
	<circle class="st4" cx="743.9" cy="573.2" r="2.5"/>
	<circle class="st4" cx="756.9" cy="559" r="2.5"/>
	<circle class="st4" cx="596.2" cy="510.5" r="2.5"/>
	<circle class="st4" cx="587.2" cy="502.5" r="2.5"/>
	<circle class="st4" cx="575.8" cy="518.2" r="2.5"/>
	<circle class="st4" cx="562.8" cy="504" r="2.5"/>
	<circle class="st4" cx="743.5" cy="455.5" r="2.5"/>
	<circle class="st4" cx="752.5" cy="447.5" r="2.5"/>
	<circle class="st4" cx="763.9" cy="463.2" r="2.5"/>
	<circle class="st4" cx="776.9" cy="449" r="2.5"/>
	<circle class="st4" cx="814.5" cy="525.5" r="2.5"/>
	<circle class="st4" cx="823.5" cy="517.5" r="2.5"/>
	<circle class="st4" cx="834.9" cy="533.2" r="2.5"/>
	<circle class="st4" cx="847.9" cy="519" r="2.5"/>
	<circle class="st4" cx="754.5" cy="805.5" r="2.5"/>
	<circle class="st4" cx="763.5" cy="797.5" r="2.5"/>
	<circle class="st4" cx="771.5" cy="805.5" r="2.5"/>
	<circle class="st4" cx="633.5" cy="863.5" r="2.5"/>
	<circle class="st4" cx="642.5" cy="855.5" r="2.5"/>
	<circle class="st4" cx="650.5" cy="863.5" r="2.5"/>
	<circle class="st4" cx="677.5" cy="1166.5" r="2.5"/>
	<circle class="st4" cx="686.5" cy="1158.5" r="2.5"/>
	<circle class="st4" cx="694.5" cy="1166.5" r="2.5"/>
</g>
<g id="Layer_17">
</g>
<g id="ballon">
	<g>
		<path class="st1" d="M1505.3,651.2H1344c-4.4,0-8-3.6-8-8v-95.3c0-4.4,3.6-8,8-8h161.3c4.4,0,8,3.6,8,8v95.3
			C1513.3,647.6,1509.8,651.2,1505.3,651.2z"/>
		<line class="st1" x1="1368.1" y1="651.2" x2="1368.1" y2="687"/>
		<line class="st1" x1="1478" y1="651.2" x2="1478" y2="687"/>
		<path class="st1" d="M1456.8,585c0-7.5-4.6-14.4-11.7-16.8c-8.4-2.8-16.4,0.6-20.6,6.8c-3.4-5-9.2-8.1-15.7-7.7
			c-9.5,0.5-16.8,9.2-16.6,18.7c0.1,3.5,0.7,6.5,2.6,9.8l0,0l29.2,36.2l26.2-33C1455.1,592.5,1456.8,590.6,1456.8,585z M1424.3,595"
			/>
	</g>
	<g>
		<path class="st1" d="M1126,166.4c0-59.9-48.3-108.5-108.1-109.2c-60.5-0.7-110.5,48.6-110.5,109.1c0,56,42,102.1,96.1,108.5v26.3
			l33.4,0.8v-27.4C1082,265.6,1126,218.7,1126,166.4z"/>
		<path class="st1" d="M1040.5,378.4h-38.3c-6.1,0-11-4.9-11-11V352c0-6.1,4.9-11,11-11h38.3c6.1,0,11,4.9,11,11v15.4
			C1051.5,373.5,1046.5,378.4,1040.5,378.4z"/>
		<rect x="1016" y="302.8" class="st1" width="9.9" height="14.1"/>
		<path class="st1" d="M1054,156.9c0-8.2-5-15.7-12.8-18.3c-9.2-3-17.9,0.7-22.4,7.4c-3.7-5.4-10-8.8-17.1-8.4
			c-10.3,0.6-18.3,10-18.1,20.3c0.1,3.8,0.7,7.1,2.8,10.7l0,0l31.7,39.4l28.5-35.9C1052.1,165.1,1054,163,1054,156.9z M1018.6,167.8
			"/>
		<rect x="1004.8" y="301.8" class="st1" width="31.6" height="39.2"/>
	</g>
	<path class="st1" d="M664.8,917.5c0-7.7-4.7-14.7-12-17.1c-8.6-2.8-16.7,0.6-21,6.9c-3.4-5-9.4-8.3-16-7.9c-9.6,0.6-17.1,9.4-17,19
		c0.1,3.6,0.7,6.7,2.6,10l0,0l29.7,36.9l26.7-33.6C663,925.2,664.8,923.2,664.8,917.5z M631.7,927.8"/>
	<path class="st1" d="M271.7,534.3c0-7.7-4.7-14.7-12-17.1c-8.6-2.8-16.7,0.6-21,6.9c-3.4-5-9.4-8.3-16-7.9c-9.6,0.6-17.1,9.4-17,19
		c0.1,3.6,0.7,6.7,2.6,10l0,0l29.7,36.9l26.7-33.6C270,542,271.7,540,271.7,534.3z M238.6,544.5"/>
	<path class="st1" d="M168,1453.3c0-7.7-4.7-14.7-12-17.1c-8.6-2.8-16.7,0.6-21,6.9c-3.4-5.1-9.4-8.3-16-7.9
		c-9.6,0.6-17.1,9.4-17,19c0.1,3.6,0.7,6.7,2.6,10l0,0l29.7,36.9l26.7-33.6C166.2,1461,168,1459,168,1453.3z M134.8,1463.6"/>
	<path class="st1" d="M1398.7,1379.8c0-7.7-4.7-14.7-12-17.1c-8.6-2.8-16.7,0.6-21,6.9c-3.4-5-9.4-8.3-16-7.9
		c-9.6,0.6-17.1,9.4-17,19c0.1,3.6,0.7,6.7,2.6,10l0,0l29.7,36.9l26.7-33.6C1396.9,1387.5,1398.6,1385.5,1398.7,1379.8"/>
	<path class="st1" d="M895.2,1401.6"/>
	<path class="st1" d="M1516,804.6c0-5.3-3.2-10.1-8.2-11.7c-5.9-1.9-11.5,0.4-14.4,4.7c-2.4-3.5-6.4-5.7-11-5.4
		c-6.6,0.4-11.8,6.4-11.6,13.1c0,2.4,0.5,4.6,1.8,6.9l0,0l20.4,25.3l18.3-23.1C1514.8,809.9,1516,808.5,1516,804.6z M1493.3,811.7"
		/>
	<path class="st1" d="M734.4,459.9c0-5.3-3.2-10.1-8.2-11.7c-5.9-1.9-11.5,0.4-14.4,4.7c-2.4-3.5-6.4-5.7-11-5.4
		c-6.6,0.4-11.8,6.4-11.6,13.1c0,2.4,0.5,4.6,1.8,6.9l0,0l20.4,25.3l18.3-23.1C733.2,465.2,734.3,463.8,734.4,459.9z M711.6,467"/>
</g>
<g id="Layer_10">
</g>
<g id="london_eye">
	<g>
		<ellipse class="st1" cx="551.7" cy="917.9" rx="12" ry="11.6"/>
		<ellipse class="st1" cx="547.6" cy="989.4" rx="12" ry="11.6"/>
		<polygon class="st1" points="369.4,957.3 442.8,1201.9 295.9,1201.9 		"/>
		<rect x="271.1" y="1201.7" class="st1" width="193.2" height="23.7"/>
		<ellipse class="st1" cx="369.9" cy="939.8" rx="141.5" ry="137.7"/>
		<ellipse class="st1" cx="369.9" cy="939.8" rx="172.4" ry="167.7"/>
		<ellipse class="st1" cx="324.5" cy="767" rx="12" ry="11.6"/>
		<ellipse class="st1" cx="400.7" cy="763" rx="12" ry="11.6"/>
		<ellipse class="st1" cx="472.8" cy="792.1" rx="12" ry="11.6"/>
		<ellipse class="st1" cx="525.9" cy="846.4" rx="12" ry="11.6"/>
		<ellipse class="st1" cx="510.9" cy="1054.3" rx="12" ry="11.6"/>
		<ellipse class="st1" cx="451" cy="1100.6" rx="12" ry="11.6"/>
		<ellipse class="st1" cx="373.5" cy="1119.1" rx="12" ry="11.6"/>
		<ellipse class="st1" cx="301.3" cy="1105.9" rx="12" ry="11.6"/>
		<ellipse class="st1" cx="238.7" cy="1064.8" rx="12" ry="11.6"/>
		<ellipse class="st1" cx="197.9" cy="1001.3" rx="12" ry="11.6"/>
		<ellipse class="st1" cx="187" cy="924.5" rx="12" ry="11.6"/>
		<ellipse class="st1" cx="206.1" cy="857" rx="12" ry="11.6"/>
		<ellipse class="st1" cx="257.8" cy="797.4" rx="12" ry="11.6"/>
		<ellipse class="st1" cx="369.4" cy="939.1" rx="18.8" ry="18.3"/>
	</g>
</g>
<g id="lines">
	<path class="st1" d="M1300.4,378h15.2l0,0c9.9,0,19.4-8.6,19.4-18.5v0c0-9.9-5.2-16.9-18.3-18l-1.3-0.1c-13.9-0.8-24-11-24-24.2
		V311c0-13.2,10.8-24,24-24h265.2"/>
	<path class="st1" d="M542,1057h61.1h0c9.9,0,18.9-9.1,18.9-19v0c0-9.9-4.9-16.9-18-18l-1.7-0.1c-13.9-0.8-24.3-11-24.3-24.2v-6.1
		c0-13.2,11.8-23.6,25-23.6h956"/>
	<path class="st1" d="M1311.9,1325.3h14.8l0,0c9.7,0,19-8.6,19-18.5l0,0c0-9.9-5.1-16.9-17.9-18l-1.3-0.1
		c-13.6-0.8-23.5-11-23.5-24.2v-6.1c0-13.2,10.6-24,23.5-24h259.6"/>
	<line class="st1" x1="1311.9" y1="1325.3" x2="-7" y2="1325.3"/>
</g>
<g id="Layer_12">
</g>
<g id="montains">
	<g>
		<path class="st1" d="M1583.5,243.4L1515,123l-24.3,42.5l-60.2-83.7l-50.3,67.3L1297.8,6.6l-105.7,159.6l-43.9-76.6 M1227.1,227.9
			l-3.1-5.4"/>
		<line class="st1" x1="1192.1" y1="166.2" x2="1227.1" y2="227.5"/>
		<line class="st1" x1="1272.2" y1="152.8" x2="1227.1" y2="227.5"/>
		<line class="st1" x1="1350.7" y1="287" x2="1272.2" y2="152.8"/>
		<path class="st1" d="M1266.7,91.7c0-2.9,2.4-5.3,5.3-5.3s5.3,2.4,5.3,5.3"/>
		<path class="st1" d="M1306.4,91.7c0-2.9,2.4-5.3,5.3-5.3c2.9,0,5.3,2.4,5.3,5.3"/>
		<path class="st1" d="M1302.7,105.7c0,5.1-4.2,9.3-9.3,9.3s-9.3-4.2-9.3-9.3"/>
	</g>
	<g>
		<path class="st1" d="M513.9,296.6l-51.8-80.2l-16,24.6l-50-77.4L367,208.4l-47.9-73.9L250,241.4L221.1,197l-63.3,97.9 M275,275
			l-2,3.1l-2-3.1H275z"/>
		<line class="st1" x1="250" y1="241.4" x2="273" y2="276.9"/>
		<line class="st1" x1="302.6" y1="233.6" x2="275" y2="273.8"/>
		<line class="st1" x1="343.2" y1="294.9" x2="302.6" y2="233.6"/>
		<path class="st1" d="M295.2,194.2c0-2.1,1.9-3.7,4.2-3.7s4.2,1.7,4.2,3.7"/>
		<path class="st1" d="M327.2,194.2c0-2.1,1.9-3.7,4.2-3.7s4.2,1.7,4.2,3.7"/>
		<path class="st1" d="M324.2,204.1c0,3.7-3.4,6.6-7.5,6.6s-7.5-3-7.5-6.6"/>
	</g>
	<circle class="st1" cx="1200.4" cy="451.4" r="5.5"/>
	<circle class="st1" cx="1220.4" cy="452.4" r="5.5"/>
	<circle class="st1" cx="1207.4" cy="469.4" r="5.5"/>
	<rect x="1269.5" y="642.5" class="st1" width="43" height="16"/>
	<rect x="1269.5" y="658.5" class="st1" width="63.7" height="16"/>
	<circle class="st1" cx="1280.2" cy="682.2" r="7.8"/>
	<circle class="st1" cx="1319.2" cy="682.2" r="7.8"/>
	<line class="st1" x1="1269.5" y1="650.5" x2="1298" y2="650.5"/>
	<line class="st1" x1="1298" y1="658.5" x2="1298" y2="642.5"/>
	<g>
		
			<rect x="608.2" y="248.5" transform="matrix(-1 -4.488244e-11 4.488244e-11 -1 1259.4023 513)" class="st1" width="43" height="16"/>
		
			<rect x="587.5" y="264.5" transform="matrix(-1 -4.488866e-11 4.488866e-11 -1 1238.7012 545)" class="st1" width="63.7" height="16"/>
		<circle class="st1" cx="640.5" cy="288.2" r="7.8"/>
		<circle class="st1" cx="601.5" cy="288.2" r="7.8"/>
		<line class="st1" x1="651.2" y1="256.5" x2="622.7" y2="256.5"/>
		<line class="st1" x1="622.7" y1="264.5" x2="622.7" y2="248.5"/>
	</g>
	<g>
		<path class="st1" d="M1035.6,1149.2l-45-79.1l-16,27.9l-50-87.8l-29.1,50.8l-47.9-83.8l-69.1,121.2l-28.8-50.3l-63.3,111
			 M803.5,1136l-2,3.6l-2-3.6H803.5z"/>
		<line class="st1" x1="778.5" y1="1098.4" x2="801.5" y2="1138.7"/>
		<line class="st1" x1="831.1" y1="1089.7" x2="803.5" y2="1135.2"/>
		<line class="st1" x1="871.7" y1="1159.2" x2="831.1" y2="1089.7"/>
		<path class="st1" d="M823.7,1044.9c0-2.3,1.9-4.2,4.2-4.2s4.2,1.9,4.2,4.2"/>
		<path class="st1" d="M855.7,1044.9c0-2.3,1.9-4.2,4.2-4.2s4.2,1.9,4.2,4.2"/>
		<path class="st1" d="M852.7,1056.1c0,4.1-3.4,7.5-7.5,7.5s-7.5-3.4-7.5-7.5"/>
	</g>
	<rect x="1244.6" y="1277.7" class="st1" width="43" height="16"/>
	<rect x="1244.6" y="1293.7" class="st1" width="63.7" height="16"/>
	<circle class="st1" cx="1255.3" cy="1317.5" r="7.8"/>
	<circle class="st1" cx="1294.3" cy="1317.5" r="7.8"/>
	<line class="st1" x1="1244.6" y1="1285.7" x2="1273.1" y2="1285.7"/>
	<line class="st1" x1="1273.1" y1="1293.7" x2="1273.1" y2="1277.7"/>
	<circle class="st1" cx="916.4" cy="455.4" r="5.5"/>
	<circle class="st1" cx="936.4" cy="456.4" r="5.5"/>
	<circle class="st1" cx="923.4" cy="473.4" r="5.5"/>
	<g>
		<path class="st1" d="M1039.6,1571.2l-45-79.1l-16,27.9l-50-87.8l-29.1,50.8l-47.9-83.8l-69.1,121.2l-28.8-50.3l-63.3,111
			 M807.5,1558l-2,3.6l-2-3.6H807.5z"/>
		<line class="st1" x1="782.5" y1="1520.4" x2="805.5" y2="1560.7"/>
		<line class="st1" x1="835.1" y1="1511.7" x2="807.5" y2="1557.2"/>
		<line class="st1" x1="875.7" y1="1581.2" x2="835.1" y2="1511.7"/>
		<path class="st1" d="M827.7,1466.9c0-2.3,1.9-4.2,4.2-4.2s4.2,1.9,4.2,4.2"/>
		<path class="st1" d="M859.7,1466.9c0-2.3,1.9-4.2,4.2-4.2s4.2,1.9,4.2,4.2"/>
		<path class="st1" d="M856.7,1478.1c0,4.1-3.4,7.5-7.5,7.5s-7.5-3.4-7.5-7.5"/>
	</g>
</g>
<g id="Layer_14">
	<path class="st1" d="M1432.5,360c-25,11-47.2,34.2-54.2,61.1h67.9L1432.5,360z"/>
	<line class="st1" x1="1420.3" y1="370.9" x2="1420.3" y2="429.8"/>
	<polygon class="st1" points="1447.9,456.3 1387.5,454.3 1375.9,435.7 1466.6,431.8 	"/>
	<path class="st1" d="M1217.7,1375.3c-25,11-47.2,34.2-54.2,61.1h67.9L1217.7,1375.3z"/>
	<line class="st1" x1="1205.5" y1="1386.2" x2="1205.5" y2="1445.1"/>
	<polygon class="st1" points="1233,1471.6 1172.7,1469.6 1161,1451 1251.7,1447.1 	"/>
	<path class="st1" d="M378.3,1356.4c-25,11-47.2,34.2-54.2,61.1H392L378.3,1356.4z"/>
	<line class="st1" x1="366.1" y1="1367.3" x2="366.1" y2="1426.2"/>
	<polygon class="st1" points="393.7,1452.7 333.3,1450.7 321.7,1432 412.3,1428.2 	"/>
	<path class="st1" d="M522.1,1467.5c-25,11-46.2,34.2-53.2,61.1h67.9L522.1,1467.5"/>
	<line class="st1" x1="509.9" y1="1478.4" x2="510.9" y2="1537.3"/>
	<polyline class="st1" points="477.1,1561.8 466.5,1543.2 557.1,1539.3 537.5,1563.8 	"/>
	<path class="st1" d="M1498.7,1276.3c-25,11-47.2,34.2-54.2,61.1h67.9L1498.7,1276.3z"/>
	<line class="st1" x1="1486.5" y1="1287.2" x2="1486.5" y2="1346.1"/>
	<polygon class="st1" points="1514,1372.6 1453.7,1370.6 1442,1352 1532.7,1348.1 	"/>
</g>
<g id="house">
	<line class="st1" x1="1539.2" y1="912.2" x2="1539.2" y2="961.6"/>
	<g>
		<polyline class="st1" points="1386.4,912.2 1425.3,859.5 1463.7,912.2 		"/>
		<line class="st1" x1="1514.5" y1="859.5" x2="1425.3" y2="859.5"/>
		<line class="st1" x1="1549.6" y1="912.2" x2="1514.5" y2="859.5"/>
		<line class="st1" x1="1548.1" y1="912.2" x2="1463.7" y2="912.2"/>
		<line class="st1" x1="1459.1" y1="905.9" x2="1459.1" y2="961.6"/>
		<line class="st1" x1="1399.8" y1="894" x2="1399.8" y2="961.6"/>
		<rect x="1420.7" y="900" class="st1" width="16.1" height="16.1"/>
		<rect x="1420.7" y="925.8" class="st1" width="16.1" height="16.1"/>
		<rect x="1510.9" y="928.6" class="st1" width="16.1" height="16.1"/>
		<rect x="1476.4" y="921.2" class="st1" width="17.7" height="44.3"/>
	</g>
	<line class="st1" x1="1357" y1="945" x2="1357" y2="960"/>
	<line class="st1" x1="1367" y1="945" x2="1367" y2="960"/>
	<line class="st1" x1="1377.1" y1="945" x2="1377.1" y2="960"/>
	<line class="st1" x1="1387.1" y1="945" x2="1387.1" y2="960"/>
	<line class="st1" x1="1336" y1="945" x2="1336" y2="960"/>
	<line class="st1" x1="1346.1" y1="945" x2="1346.1" y2="960"/>
	<line class="st1" x1="1295" y1="945" x2="1295" y2="960"/>
	<line class="st1" x1="1305" y1="945" x2="1305" y2="960"/>
	<line class="st1" x1="1315.1" y1="945" x2="1315.1" y2="960"/>
	<line class="st1" x1="1325.1" y1="945" x2="1325.1" y2="960"/>
	<line class="st1" x1="1548.8" y1="946" x2="1548.8" y2="961"/>
	<line class="st1" x1="1560.5" y1="947.2" x2="1560.5" y2="961"/>
	<line class="st1" x1="1569.7" y1="947.2" x2="1569.7" y2="961"/>
	<line class="st1" x1="1578.9" y1="947.2" x2="1578.9" y2="961"/>
	<line class="st1" x1="1295" y1="953.5" x2="1385.6" y2="953.5"/>
	<line class="st1" x1="1548.8" y1="954.5" x2="1578.9" y2="954.5"/>
	<g>
		<polyline class="st1" points="218.4,424.3 236,400.5 253.4,424.3 		"/>
		<line class="st1" x1="276.4" y1="398.5" x2="236" y2="398.5"/>
		<line class="st1" x1="292.7" y1="425.2" x2="276.2" y2="398.6"/>
		<line class="st1" x1="291.7" y1="424.3" x2="253.4" y2="424.3"/>
		<line class="st1" x1="251.3" y1="421.5" x2="251.3" y2="446.7"/>
		<line class="st1" x1="289.3" y1="424.3" x2="289.3" y2="446.7"/>
		<line class="st1" x1="224.5" y1="416.1" x2="224.5" y2="446.7"/>
		<rect x="233.9" y="416.8" class="st1" width="7.3" height="7.3"/>
		<rect x="233.9" y="430.5" class="st1" width="7.3" height="7.3"/>
		<rect x="274.8" y="431.8" class="st1" width="7.3" height="7.3"/>
		<rect x="259.2" y="428.4" class="st1" width="8" height="20.1"/>
	</g>
	<line class="st1" x1="1101.3" y1="1272.1" x2="1101.3" y2="1321.4"/>
	<g>
		<polyline class="st1" points="948.5,1272.1 987.4,1219.4 1025.8,1272.1 		"/>
		<line class="st1" x1="1076.6" y1="1219.4" x2="987.4" y2="1219.4"/>
		<line class="st1" x1="1111.7" y1="1272.1" x2="1076.6" y2="1219.4"/>
		<line class="st1" x1="1110.3" y1="1272.1" x2="1025.8" y2="1272.1"/>
		<line class="st1" x1="1021.2" y1="1265.8" x2="1021.2" y2="1321.4"/>
		<line class="st1" x1="961.9" y1="1253.9" x2="961.9" y2="1321.4"/>
		<rect x="982.9" y="1259.9" class="st1" width="16.1" height="16.1"/>
		<rect x="982.9" y="1285.7" class="st1" width="16.1" height="16.1"/>
		<rect x="1073" y="1288.5" class="st1" width="16.1" height="16.1"/>
		<rect x="1038.6" y="1281.1" class="st1" width="17.7" height="44.3"/>
	</g>
	<line class="st1" x1="687.9" y1="1272.1" x2="687.9" y2="1321.4"/>
	<g>
		<polyline class="st1" points="840.7,1272.1 801.8,1219.4 763.4,1272.1 		"/>
		<line class="st1" x1="712.6" y1="1219.4" x2="801.8" y2="1219.4"/>
		<line class="st1" x1="677.5" y1="1272.1" x2="712.6" y2="1219.4"/>
		<line class="st1" x1="678.9" y1="1272.1" x2="763.4" y2="1272.1"/>
		<line class="st1" x1="768" y1="1265.8" x2="768" y2="1321.4"/>
		<line class="st1" x1="827.3" y1="1253.9" x2="827.3" y2="1321.4"/>
		
			<rect x="790.2" y="1259.9" transform="matrix(-1 -1.153154e-10 1.153154e-10 -1 1596.5726 2535.8735)" class="st1" width="16.1" height="16.1"/>
		
			<rect x="790.2" y="1285.7" transform="matrix(-1 -1.150898e-10 1.150898e-10 -1 1596.5726 2587.4104)" class="st1" width="16.1" height="16.1"/>
		
			<rect x="700" y="1288.5" transform="matrix(-1 -1.152026e-10 1.152026e-10 -1 1416.1935 2593.1367)" class="st1" width="16.1" height="16.1"/>
		
			<rect x="733" y="1281.1" transform="matrix(-1 -2.208852e-10 2.208852e-10 -1 1483.605 2606.4429)" class="st1" width="17.7" height="44.3"/>
	</g>
	<line class="st1" x1="1185" y1="1309" x2="1185" y2="1324"/>
	<line class="st1" x1="1195" y1="1309" x2="1195" y2="1324"/>
	<line class="st1" x1="1205.1" y1="1309" x2="1205.1" y2="1324"/>
	<line class="st1" x1="1215.1" y1="1309" x2="1215.1" y2="1324"/>
	<line class="st1" x1="1164" y1="1309" x2="1164" y2="1324"/>
	<line class="st1" x1="1174.1" y1="1309" x2="1174.1" y2="1324"/>
	<line class="st1" x1="1123" y1="1309" x2="1123" y2="1324"/>
	<line class="st1" x1="1133" y1="1309" x2="1133" y2="1324"/>
	<line class="st1" x1="1143.1" y1="1309" x2="1143.1" y2="1324"/>
	<line class="st1" x1="1153.1" y1="1309" x2="1153.1" y2="1324"/>
	<line class="st1" x1="1123" y1="1316.5" x2="1213.6" y2="1316.5"/>
	<line class="st1" x1="912" y1="1309" x2="912" y2="1324"/>
	<line class="st1" x1="922" y1="1309" x2="922" y2="1324"/>
	<line class="st1" x1="932.1" y1="1309" x2="932.1" y2="1324"/>
	<line class="st1" x1="942.1" y1="1309" x2="942.1" y2="1324"/>
	<line class="st1" x1="891" y1="1309" x2="891" y2="1324"/>
	<line class="st1" x1="901.1" y1="1309" x2="901.1" y2="1324"/>
	<line class="st1" x1="850" y1="1309" x2="850" y2="1324"/>
	<line class="st1" x1="860" y1="1309" x2="860" y2="1324"/>
	<line class="st1" x1="870.1" y1="1309" x2="870.1" y2="1324"/>
	<line class="st1" x1="880.1" y1="1309" x2="880.1" y2="1324"/>
	<line class="st1" x1="850" y1="1316.5" x2="940.6" y2="1316.5"/>
	<line class="st1" x1="391.5" y1="1286.2" x2="391.5" y2="1321.3"/>
	<g>
		<polyline class="st1" points="500.2,1286.2 472.5,1248.7 445.2,1286.2 		"/>
		<line class="st1" x1="409.1" y1="1248.7" x2="472.5" y2="1248.7"/>
		<line class="st1" x1="384.1" y1="1286.2" x2="409.1" y2="1248.7"/>
		<line class="st1" x1="385.1" y1="1286.2" x2="445.2" y2="1286.2"/>
		<line class="st1" x1="448.5" y1="1281.7" x2="448.5" y2="1321.3"/>
		<line class="st1" x1="490.6" y1="1273.2" x2="490.6" y2="1321.3"/>
		
			<rect x="464.3" y="1277.5" transform="matrix(-1 -1.153026e-10 1.153026e-10 -1 940.03 2566.478)" class="st1" width="11.5" height="11.5"/>
		
			<rect x="464.3" y="1295.8" transform="matrix(-1 -1.149846e-10 1.149846e-10 -1 940.03 2603.1284)" class="st1" width="11.5" height="11.5"/>
		
			<rect x="400.2" y="1297.9" transform="matrix(-1 -1.153026e-10 1.153026e-10 -1 811.7535 2607.2007)" class="st1" width="11.5" height="11.5"/>
		
			<rect x="423.6" y="1292.6" transform="matrix(-1 -2.208253e-10 2.208253e-10 -1 859.6931 2616.6633)" class="st1" width="12.6" height="31.5"/>
	</g>
	<line class="st1" x1="256.1" y1="1286.2" x2="256.1" y2="1321.3"/>
	<g>
		<polyline class="st1" points="364.8,1286.2 337.1,1248.7 309.8,1286.2 		"/>
		<line class="st1" x1="273.7" y1="1248.7" x2="337.1" y2="1248.7"/>
		<line class="st1" x1="248.7" y1="1286.2" x2="273.7" y2="1248.7"/>
		<line class="st1" x1="249.7" y1="1286.2" x2="309.8" y2="1286.2"/>
		<line class="st1" x1="313.1" y1="1281.7" x2="313.1" y2="1321.3"/>
		<line class="st1" x1="355.2" y1="1273.2" x2="355.2" y2="1321.3"/>
		
			<rect x="328.9" y="1277.5" transform="matrix(-1 -1.153026e-10 1.153026e-10 -1 669.2531 2566.478)" class="st1" width="11.5" height="11.5"/>
		
			<rect x="328.9" y="1295.8" transform="matrix(-1 -1.149846e-10 1.149846e-10 -1 669.2531 2603.1284)" class="st1" width="11.5" height="11.5"/>
		
			<rect x="264.8" y="1297.9" transform="matrix(-1 -1.153026e-10 1.153026e-10 -1 540.9766 2607.2007)" class="st1" width="11.5" height="11.5"/>
		
			<rect x="288.2" y="1292.6" transform="matrix(-1 -2.208253e-10 2.208253e-10 -1 588.9162 2616.6633)" class="st1" width="12.6" height="31.5"/>
	</g>
	<line class="st1" x1="223.1" y1="1286.2" x2="223.1" y2="1321.3"/>
	<g>
		<polyline class="st1" points="114.4,1286.2 142,1248.7 169.3,1286.2 		"/>
		<line class="st1" x1="205.5" y1="1248.7" x2="142" y2="1248.7"/>
		<line class="st1" x1="230.4" y1="1286.2" x2="205.5" y2="1248.7"/>
		<line class="st1" x1="229.4" y1="1286.2" x2="169.3" y2="1286.2"/>
		<line class="st1" x1="166.1" y1="1281.7" x2="166.1" y2="1321.3"/>
		<line class="st1" x1="123.9" y1="1273.2" x2="123.9" y2="1321.3"/>
		<rect x="138.8" y="1295.8" class="st1" width="11.5" height="11.5"/>
		<rect x="202.9" y="1297.9" class="st1" width="11.5" height="11.5"/>
		<rect x="178.4" y="1292.6" class="st1" width="12.6" height="31.5"/>
	</g>
</g>
<g id="rain">
	<line class="st5" x1="208.6" y1="97.9" x2="208.6" y2="200.7"/>
	<line class="st5" x1="229.6" y1="96.9" x2="229.6" y2="183.8"/>
	<line class="st5" x1="259.8" y1="96.9" x2="259.8" y2="196.1"/>
	<line class="st5" x1="289.2" y1="98.6" x2="289.2" y2="154.4"/>
	<line class="st5" x1="315.2" y1="96.9" x2="315.2" y2="118.2"/>
	<line class="st5" x1="358.1" y1="95.5" x2="358.1" y2="148.1"/>
	<line class="st5" x1="338.7" y1="97.2" x2="338.7" y2="127.1"/>
	<line class="st5" x1="379.9" y1="95.5" x2="379.9" y2="168.6"/>
	<line class="st5" x1="185.9" y1="94.1" x2="185.9" y2="172.3"/>
	<line class="st5" x1="773.7" y1="447.7" x2="773.7" y2="482.7"/>
	<line class="st5" x1="790.8" y1="447.7" x2="790.8" y2="511.7"/>
	<line class="st5" x1="813.5" y1="447.7" x2="813.5" y2="482.7"/>
	<line class="st5" x1="830.6" y1="447.7" x2="830.6" y2="511.7"/>
	<line class="st5" x1="854.9" y1="447.7" x2="854.9" y2="482.7"/>
</g>
</svg>
